<svg width="522" height="392" viewBox="0 0 522 392" fill="none" xmlns="http://www.w3.org/2000/svg">
<path d="M241.331 90.3396C242.404 90.6692 251.209 100.997 252.769 102.719C251.126 106.487 250.022 110.125 249.24 114.142C248.043 112.899 246.893 111.603 245.725 110.333C240.61 104.535 234.898 99.2067 230.014 93.2115C233.746 92.8244 237.98 92.0841 241.331 90.3396Z" fill="#1C2244"/>
<path d="M160.094 146.604C160.475 146.656 160.766 146.789 161.061 147.038C163.042 148.708 164.859 150.777 166.728 152.593C172.521 158.217 178.131 164.053 184.1 169.491C187.879 167.844 192.168 167.157 196.273 167.325C208.441 167.824 214.204 174.202 221.763 182.51C216.156 182.443 210.558 182.817 204.964 183.153C198.834 183.462 192.718 183.958 186.618 184.64C180.518 185.322 174.444 186.188 168.396 187.24L169.523 184.124L153.333 168.441C150.84 166.016 147.76 163.467 145.716 160.676C146.919 159.637 148.137 158.615 149.37 157.611C156.784 165.059 164.339 172.466 172.216 179.426C174.498 176.769 176.968 174.494 179.713 172.324C172.103 164.84 164.412 157.439 156.641 150.124L160.094 146.604Z" fill="#1C2244"/>
<path d="M59.1806 43.3978L59.5069 43.3794C61.4426 43.2791 62.9463 43.6417 64.6305 44.5926C68.5403 46.7995 78.2924 57.2541 82.4523 60.9796C84.0669 59.8404 85.5281 58.9718 87.5725 58.9369C89.7041 58.9009 91.768 59.8427 93.2785 61.323C95.5516 63.551 96.1165 66.0894 96.1532 69.1634C97.4541 70.29 98.6599 71.409 99.8045 72.6983C100.067 72.5235 100.334 72.3567 100.606 72.1979C104.883 69.7035 109.922 67.7382 114.539 65.9635C134.495 58.2923 154.82 55.3228 176.151 57.0079C181.087 57.3976 186.089 57.8279 190.895 59.0728C190.879 63.4377 191.631 67.3209 192.789 71.505C188.335 69.8624 183.145 69.2583 178.448 68.7143C158.549 66.4098 140.648 68.8032 121.714 75.1797C117.393 76.6638 113.216 78.3386 109.036 80.1838C116.333 86.7261 123.338 93.8418 130.315 100.734C127.451 102.754 124.939 105.657 122.45 108.133C128.035 113.278 133.414 118.657 138.896 123.912C137.721 124.974 136.46 125.96 135.242 126.974C133.355 125.387 131.614 123.51 129.832 121.8C126.122 118.264 122.442 114.698 118.792 111.1L97.4997 90.3245L70.9388 64.7174C66.9598 60.9004 62.8763 57.171 59.0109 53.2395C57.872 52.0811 55.8823 50.4557 55.5588 48.8402C55.5377 48.7342 55.5263 48.6263 55.5087 48.5195C55.3897 47.7806 55.3087 47.064 55.5614 46.3409C56.1133 44.7656 57.794 44.0708 59.1806 43.3978Z" fill="#1C2244"/>
<path d="M44.0797 57.6989C44.2393 57.6831 44.3992 57.6692 44.5593 57.6572C45.9368 57.5539 47.1938 57.6974 48.3498 58.5205C50.6497 60.1577 52.7507 62.468 54.7993 64.4154L68.6581 77.7625L107.337 114.808C114.23 121.461 120.849 128.51 128.079 134.797C126.894 136.002 125.48 137.035 124.169 138.103C119.217 132.837 113.759 127.988 108.694 122.814C106.087 125.595 103.078 128.089 100.677 131.045C91.9776 121.972 82.8294 113.295 73.9079 104.437C70.4088 109.158 66.4118 113.465 62.9926 118.287C59.0024 123.915 55.6471 130.064 52.7209 136.305C41.0881 161.12 39.1427 186.782 43.6767 213.597C42.4518 216.18 41.4376 218.938 41.0537 221.784C40.3171 227.245 42.4778 232.025 45.723 236.279C47.7364 238.38 50.1143 239.822 52.6719 241.146C57.6257 250.768 71.8211 270.64 80.3218 277.061C80.2144 282.222 80.3693 287.495 81.1425 292.602C79.9856 291.741 78.8633 290.836 77.7757 289.889C63.5062 277.366 50.1021 261.566 42.1799 244.18C39.2135 237.67 37.0669 230.852 35.1722 223.964C32.9407 215.851 31.2053 207.425 30.6624 199.012C29.3435 178.572 32.096 159.03 39.384 139.864C41.7156 133.731 44.414 127.598 47.7139 121.921C53.0497 112.74 59.529 104.506 66.5189 96.5556C64.1456 94.2771 59.3241 91.4041 57.9592 88.804C56.7882 86.5741 57.3007 84.466 58.0257 82.2215C54.1893 78.5641 44.7643 70.4642 42.2323 66.3785C41.2686 64.8231 40.6116 62.8508 41.1122 61.0264C41.5764 59.3336 42.6223 58.4879 44.0797 57.6989Z" fill="#1C2244"/>
<path d="M421.405 123.392C422.063 123.31 422.736 123.277 423.401 123.262C429.256 123.13 444.178 127.538 448.304 131.498C448.385 131.586 448.538 131.749 448.606 131.861C449.65 133.556 452.809 146.045 453.7 149.078C458.568 165.649 463.429 182.278 468.546 198.775C469.402 201.541 473.349 212.375 472.817 214.494C470.435 212.747 445.742 204.696 442.189 204.067C441.49 205.266 429.073 214.778 427.405 215.526C427.336 215.626 427.283 215.734 427.202 215.825C426.426 216.748 424.679 217.71 423.638 218.387C417.225 222.571 409.814 226.119 402.009 225.903C402.2 224.173 398.609 214.227 397.844 211.736C395.615 204.495 377.304 144.039 377.479 142.383C377.853 141.943 378.1 141.545 378.749 141.539C380.028 141.528 381.468 141.87 382.746 142.031C387.366 142.611 391.615 142.488 395.948 140.622C406.365 136.138 410.667 126.35 421.405 123.392Z" fill="#1C2244"/>
<path d="M422.216 127.221C423.803 127.074 425.336 127.218 426.908 127.451C430.977 128.052 443.092 131.602 445.299 134.604C445.494 134.802 445.505 134.796 445.677 135.074C446.801 136.86 447.888 142.542 448.599 144.867L457.589 175.185C460.641 185.348 463.857 195.513 466.595 205.763C466.844 206.689 467.165 207.558 466.882 208.515C465.161 206.988 445.692 200.972 441.876 199.698C440.675 200.992 438.92 202.116 437.532 203.225C433.585 206.374 429.574 209.856 425.256 212.482C425.214 212.546 425.172 212.614 425.122 212.674C422.009 216.398 409.65 221.608 404.808 222.322C405.133 220.226 399.401 204.131 398.514 201.136L387.806 164.536C385.993 158.34 383.898 152.173 382.343 145.911C395.16 147.589 402.636 142.275 411.512 134.134C414.816 131.105 417.806 128.452 422.216 127.221Z" fill="#FEFEFE"/>
<path d="M388.112 150.341C393.695 150.281 398.674 149.809 403.363 146.454L404.001 146.788L403.852 147.446C402.189 149.635 397.003 150.872 394.403 151.238C392.93 151.446 391.404 151.557 389.921 151.609C391.022 155.09 395.462 168.264 395.102 170.935C395.416 171.203 395.561 171.36 395.707 171.758C399.007 180.861 401.385 190.529 404.062 199.837C404.904 202.764 406.453 206.046 406.869 209.011C406.919 209.351 406.831 209.646 406.743 209.972L406.785 210.183C407.175 212.003 407.749 214.398 408.713 215.981L409.65 216.204L409.508 216.374C409.041 216.4 408.854 216.49 408.495 216.139C407.221 214.891 407.734 212.099 405.94 211.371C406.127 210.38 395.645 175.812 394.123 170.591C392.146 163.826 390.238 157.065 388.112 150.341Z" fill="#171834"/>
<path d="M452.557 174.815C452.97 174.224 453.069 173.925 453.081 173.201C454.446 174.63 461.609 199.257 461.509 201.266C461.494 201.596 461.41 201.916 461.307 202.228C457.318 200.307 444.832 196.194 440.579 195.781C438.992 197.496 436.396 198.926 434.488 200.35C428.832 204.573 414.135 216.443 407.852 217.511C407.994 215.961 406.888 212.658 405.94 211.371C407.734 212.099 407.221 214.891 408.495 216.139C408.854 216.49 409.041 216.4 409.508 216.374L409.65 216.204L408.713 215.981C407.749 214.398 407.175 212.003 406.785 210.183L406.743 209.972C406.816 210.043 406.896 210.11 406.965 210.185C407.795 211.073 408.843 214.716 408.766 215.905C410.063 215.452 411.367 214.612 412.583 213.958C422.43 208.655 431.157 201.113 440.174 194.523C440.251 194.529 440.327 194.533 440.404 194.54L440.778 194.579C445.302 195.02 455.911 198.404 460.025 200.404C460.045 200.343 460.071 200.283 460.083 200.22C460.205 199.441 453.563 176.377 452.557 174.815Z" fill="#1C2244"/>
<path d="M420.281 132.993C425.264 131.123 431.34 132.638 436.017 134.78C436.495 135 436.92 135.155 437.283 135.555C438.564 135.894 441.761 136.966 442.434 138.112C443.799 139.589 453.368 171.103 453.245 172.594C453.23 172.776 453.13 173.042 453.081 173.201C453.069 173.925 452.97 174.224 452.557 174.815C453.563 176.377 460.205 199.442 460.083 200.22C460.071 200.283 460.045 200.343 460.025 200.404C455.911 198.404 445.302 195.02 440.778 194.579L440.404 194.54C440.327 194.533 440.251 194.529 440.174 194.523C431.157 201.113 422.43 208.655 412.583 213.958C411.367 214.612 410.063 215.452 408.766 215.906C408.843 214.716 407.795 211.073 406.965 210.185C406.896 210.11 406.816 210.043 406.743 209.972C406.831 209.647 406.919 209.351 406.869 209.011C406.453 206.046 404.904 202.764 404.062 199.837C401.385 190.529 399.007 180.861 395.707 171.758C395.561 171.36 395.416 171.203 395.102 170.935C395.462 168.264 391.022 155.09 389.921 151.609C391.404 151.557 392.93 151.446 394.403 151.238C397.003 150.872 402.189 149.635 403.852 147.446L404.001 146.788L403.363 146.454C405.099 145.566 407.244 144.389 408.537 142.918C409.137 142.527 409.55 142.19 409.998 141.63C413.715 139.221 416.502 135.489 420.281 132.993Z" fill="#FEFEFE"/>
<path d="M408.537 142.918C409.137 142.527 409.55 142.19 409.998 141.63C410.506 141.922 410.606 141.926 410.835 142.452C410.59 143.059 410.441 143.226 409.845 143.516C409.623 143.623 409.527 143.647 409.313 143.717L408.537 142.918Z" fill="#1C2244"/>
<path d="M411.336 195.352L412.193 195.339C412.766 195.83 412.892 195.898 413.126 196.649C412.862 197.37 412.724 197.327 412.066 197.665C411.585 197.584 411.466 197.302 411.149 196.949C411.011 196.157 410.942 196.096 411.336 195.352Z" fill="#1C2244"/>
<path d="M432.759 182.084C433.275 182.042 433.558 181.92 433.975 182.287C434.553 182.796 434.595 183.248 434.66 183.955L434.155 184.39C433.929 184.577 433.723 184.621 433.447 184.71L433.042 184.382C432.755 183.572 432.721 182.94 432.759 182.084Z" fill="#1C2244"/>
<path d="M424.216 187.704L424.832 187.805C425.332 188.386 425.409 188.432 425.493 189.233C425.122 189.986 425.042 189.943 424.308 190.262C424.067 190.282 424.193 190.294 423.883 190.16C423.485 189.989 423.527 189.807 423.371 189.423C423.485 188.45 423.527 188.406 424.216 187.704Z" fill="#1C2244"/>
<path d="M432.361 187.448C432.545 187.418 432.686 187.387 432.878 187.398C433.409 187.428 433.753 187.937 434.067 188.309C434.193 188.945 434.205 189.021 433.967 189.621L433.004 190.004L431.883 188.884C431.757 188.102 431.922 188.073 432.361 187.448Z" fill="#171834"/>
<path d="M416.613 192.295L417.363 192.271C417.497 192.368 417.692 192.498 417.787 192.632C418.078 193.05 418.086 193.56 417.875 194.015C417.566 194.699 416.942 194.748 416.296 194.948C416.032 194.617 415.864 194.079 415.68 193.689C415.833 192.903 416.044 192.826 416.613 192.295Z" fill="#171834"/>
<path d="M431.122 183.365C431.673 183.349 431.765 183.366 432.247 183.626C432.556 184.106 432.805 184.42 432.633 185.02C432.423 185.758 431.876 185.884 431.252 186.176C430.946 185.69 430.422 185.019 430.415 184.438C430.411 183.992 430.839 183.69 431.122 183.365Z" fill="#171834"/>
<path d="M428.962 184.641C429.206 184.613 429.375 184.606 429.623 184.66C429.967 184.735 430.162 185.237 430.35 185.531C430.369 185.895 430.411 186.289 430.258 186.629C430.002 187.204 429.593 187.258 429.057 187.5C428.656 187.088 428.411 186.62 428.136 186.122C428.243 185.329 428.442 185.221 428.962 184.641Z" fill="#20233A"/>
<path d="M422.025 188.981C422.197 189.025 422.281 189.033 422.438 189.153C422.977 189.566 423.199 190.018 423.271 190.657C422.866 191.457 422.663 191.398 421.852 191.709C421.283 191.405 420.981 191.06 420.759 190.476C421.065 189.687 421.386 189.512 422.025 188.981Z" fill="#1C2244"/>
<path d="M414.522 193.574L414.942 193.721C415.367 194.375 415.508 194.487 415.501 195.292C414.988 196.053 414.743 196.059 413.914 196.386C413.868 196.379 413.818 196.385 413.78 196.363C413.198 196.042 413.229 195.871 413.122 195.263C413.497 194.356 413.741 194.192 414.522 193.574Z" fill="#1C2244"/>
<path d="M422.969 193.06L423.795 193.009C424.361 193.234 424.571 193.639 424.896 194.125C424.969 194.569 425.038 194.819 424.889 195.259C424.755 195.652 424.353 195.714 423.994 195.879L423.539 195.933C423.386 195.677 423.229 195.422 423.114 195.145C422.74 194.224 422.64 193.953 422.969 193.06Z" fill="#1C2244"/>
<path d="M425.451 191.53L426.212 191.613C426.357 191.818 426.5 192.025 426.64 192.235C427.023 192.828 427.348 193.253 427.195 193.951L426.396 194.344C426.239 194.57 426.044 194.632 425.807 194.758C425.493 194.549 425.39 194.35 425.26 194.005C424.87 192.98 425.011 192.465 425.451 191.53Z" fill="#171834"/>
<path d="M428.116 190.257C428.269 190.288 428.354 190.293 428.499 190.39C429.13 190.816 429.382 191.24 429.531 191.95C429.187 192.783 428.931 192.843 428.193 193.321C427.654 192.774 427.18 192.143 427.015 191.389C427.256 190.644 427.466 190.649 428.116 190.257Z" fill="#1C2244"/>
<path d="M434.721 185.917C435.363 185.896 435.73 185.889 436.243 186.331C436.706 186.735 436.713 187.087 436.729 187.662C436.27 188.381 436.036 188.398 435.275 188.729L435 188.686C434.759 187.964 434.388 187.336 434.094 186.641L434.721 185.917Z" fill="#1C2244"/>
<path d="M420.988 194.337C421.302 194.328 421.619 194.373 421.929 194.4C422.533 195.094 422.782 195.62 422.862 196.542C422.533 197.214 422.113 197.299 421.466 197.647L421.401 197.63C421.019 197.098 420.713 196.312 420.575 195.666C420.43 194.971 420.625 194.883 420.988 194.337Z" fill="#1C2244"/>
<path d="M418.659 195.87C418.927 195.904 419.164 195.945 419.401 196.092C420.197 196.589 420.411 197.17 420.533 198.024C420.185 198.811 419.937 198.809 419.191 199.193L419.007 199.153C418.506 198.342 418.055 197.517 417.979 196.553L418.659 195.87Z" fill="#1C2244"/>
<path d="M403.363 146.454C405.099 145.566 407.244 144.389 408.537 142.918L409.313 143.717C408.693 145.047 405.802 146.768 404.407 147.293C404.238 147.356 404.02 147.404 403.852 147.446L404.001 146.788L403.363 146.454Z" fill="#1C2244"/>
<path d="M440.377 168.643C442.415 168.727 444.212 168.824 446.017 169.871L446.327 170.716C444.098 170.935 441.436 169.756 439.1 169.628C439.551 168.937 439.593 168.914 440.377 168.643Z" fill="#171834"/>
<path d="M411.546 199.951L412.208 199.998C413.126 200.518 413.657 201.502 414.128 202.411C413.78 203.155 412.858 203.468 412.158 203.788L411.959 204.115L411.554 204.032C411.099 203.348 410.728 202.712 410.663 201.873C410.59 200.949 411.007 200.64 411.546 199.951Z" fill="#1C2244"/>
<path d="M414.418 178.909L414.258 179.296C412.12 180.266 408.923 183.001 406.659 183.038L406.33 182.669C406.835 181.042 411.879 179.622 413.359 178.34C413.443 178.268 413.523 178.192 413.604 178.118L414.288 178.4L414.418 178.909Z" fill="#171834"/>
<path d="M402.579 159.564C403.045 159.51 403.282 159.516 403.718 159.696C403.634 161.532 403.451 163.929 403.772 165.725C404.047 167.263 406.189 170.079 405.707 171.513L404.846 171.718C404.793 171.362 404.59 170.964 404.452 170.632C403.634 168.653 402.686 165.865 402.659 163.719C402.64 162.396 402.808 161.184 402.621 159.855L402.579 159.564Z" fill="#20233A"/>
<path d="M416.904 197.147L417.271 197.287C417.673 198.162 418.262 198.765 418.22 199.775C417.776 200.444 417.707 200.421 416.984 200.666C416.235 200.247 416.395 199.151 415.581 198.61L415.244 198.816C415.424 199.252 415.585 199.649 415.623 200.125C415.631 200.241 415.638 200.358 415.646 200.474L416.116 201.043C415.749 201.636 415.638 201.621 415.015 201.866C414.311 201.621 413.344 200.197 412.739 199.624L412.56 199.454C414.066 198.904 415.508 197.941 416.904 197.147Z" fill="#1C2244"/>
<path d="M409.998 141.63C413.715 139.221 416.502 135.489 420.281 132.992L420.487 133.58C420.701 133.613 421.114 133.629 421.294 133.735C420.522 134.414 419.638 134.919 418.858 135.583C416.567 137.528 413.386 141.273 410.835 142.452C410.606 141.926 410.506 141.922 409.998 141.63Z" fill="#20233A"/>
<path d="M420.281 132.993C425.264 131.123 431.34 132.638 436.017 134.78C436.495 135 436.92 135.155 437.283 135.555C437.566 135.832 437.857 136.067 438.036 136.424L437.05 136.549C432.591 133.868 426.357 132.73 421.294 133.735C421.114 133.629 420.701 133.613 420.487 133.581L420.281 132.993Z" fill="#171834"/>
<path d="M405.003 152.991L405.665 153.154L405.707 153.703C405.175 154.818 404.303 155.087 403.454 155.866C401.955 157.238 401.504 158.918 401.458 160.88C401.378 164.246 401.81 169.166 404.28 171.685L404.514 171.92L404.456 172.351L403.573 172.799C403.477 172.844 403.225 172.801 403.122 172.795C400.858 168.911 399.753 164.349 400.326 159.866C400.491 158.59 401.221 156.698 400.77 155.516C402.223 155.09 404.032 154.164 405.003 152.991Z" fill="#171834"/>
<path d="M434.606 176.094C438.132 175.606 442.813 175.919 445.876 178.002C445.975 178.07 446.06 178.159 446.155 178.238C447.054 179.296 448.744 183.449 448.671 184.774C448.664 184.922 448.591 185.129 448.553 185.259C449.276 186.003 449.647 186.845 449.666 187.892C449.67 188.122 449.635 188.323 449.566 188.541C449.52 188.513 449.475 188.484 449.429 188.457C446.939 187.021 438.679 186.548 437.853 185.575L438.036 185.165C441.157 184.785 445.979 186.591 447.918 186.311C447.914 185.897 447.88 185.848 447.658 185.496C447.662 185.432 447.677 185.368 447.677 185.303C447.677 183.802 446.22 180.132 445.149 179.071C442.04 177.142 438.262 176.789 434.729 177.139C434.541 177.128 434.335 177.036 434.155 176.979L434.606 176.094Z" fill="#171834"/>
<path d="M437.283 135.555C438.564 135.894 441.761 136.966 442.434 138.112C443.799 139.589 453.367 171.104 453.245 172.595C453.23 172.776 453.13 173.042 453.081 173.201C453.069 173.925 452.97 174.224 452.557 174.815C452.572 174.695 452.599 174.575 452.599 174.454C452.622 172.583 443.448 143.551 442.335 140.586C442.044 139.822 441.819 139.226 441.23 138.633C440.362 137.702 438.251 137.06 437.05 136.549L438.036 136.424C437.857 136.067 437.566 135.832 437.283 135.555Z" fill="#20233A"/>
<path d="M413.604 178.119C413.451 177.291 411.707 175.737 411.122 175.003C407.267 170.155 405.393 165.37 406.158 159.111C406.758 154.204 408.927 150.034 412.866 146.991C416.72 144.012 421.646 143.046 426.426 143.714C430.943 144.346 434.851 147.019 437.535 150.625C440.568 154.697 441.799 159.347 440.885 164.363C440.641 165.701 440.101 166.951 439.91 168.289L440.377 168.643C439.593 168.915 439.551 168.937 439.099 169.628C437.929 171.964 436.491 174.266 434.606 176.094L434.155 176.979C434.335 177.036 434.541 177.128 434.728 177.139C434.369 177.353 434.201 177.388 433.799 177.4C432.518 177.441 423.336 182.839 421.306 183.839C418.889 185.029 416.307 185.861 413.91 187.089C411.925 188.105 410.009 189.855 407.887 190.393C408.999 189.227 409.913 188.068 411.275 187.171C413.875 185.459 422.717 182.648 423.856 181.283C422.514 181.111 421.21 180.907 419.91 180.523C418.25 180.03 416.132 178.953 414.418 178.909L414.288 178.4L413.604 178.119Z" fill="#1C2244"/>
<path d="M422.927 147.893C422.996 147.886 423.069 147.879 423.137 147.874C426.266 147.639 429.631 148.377 432.025 150.489C434.748 152.896 436.549 156.768 436.729 160.389C436.95 164.785 435.184 169.369 432.235 172.608C432.095 172.763 431.951 172.915 431.803 173.063C431.658 173.211 431.507 173.355 431.352 173.495C431.196 173.636 431.038 173.772 430.878 173.905C430.717 174.037 430.553 174.166 430.384 174.29C430.216 174.415 430.045 174.535 429.872 174.651C429.698 174.767 429.523 174.878 429.344 174.986C429.166 175.093 428.983 175.196 428.797 175.294C428.614 175.392 428.428 175.485 428.239 175.574C428.05 175.663 427.859 175.747 427.665 175.827C427.474 175.906 427.279 175.981 427.08 176.051C426.884 176.121 426.686 176.185 426.487 176.245C426.286 176.305 426.085 176.36 425.883 176.41C425.679 176.46 425.475 176.505 425.271 176.545C425.067 176.585 424.862 176.62 424.656 176.649C424.449 176.679 424.241 176.704 424.032 176.723C423.826 176.743 423.618 176.757 423.409 176.766C420.923 176.674 418.763 176.005 416.747 174.531C416.536 174.374 416.328 174.212 416.124 174.044C415.917 173.877 415.717 173.705 415.523 173.527C415.327 173.35 415.135 173.169 414.946 172.982C414.76 172.796 414.578 172.605 414.399 172.409C414.223 172.214 414.051 172.014 413.883 171.81C413.715 171.607 413.551 171.399 413.393 171.187C413.235 170.975 413.082 170.76 412.935 170.54C412.787 170.321 412.645 170.098 412.51 169.872C412.372 169.646 412.241 169.417 412.116 169.184C411.991 168.951 411.871 168.716 411.757 168.477C411.642 168.239 411.534 167.998 411.432 167.754C411.33 167.511 411.234 167.264 411.145 167.016C411.053 166.768 410.969 166.517 410.892 166.265C410.813 166.012 410.741 165.758 410.674 165.502C410.611 165.246 410.552 164.988 410.499 164.729C410.445 164.471 410.398 164.21 410.357 163.949C410.324 163.713 410.296 163.476 410.273 163.238C410.252 163 410.237 162.762 410.227 162.524C410.217 162.286 410.213 162.047 410.216 161.808C410.216 161.569 410.223 161.331 410.238 161.093C410.251 160.854 410.27 160.617 410.296 160.379C410.321 160.142 410.352 159.905 410.388 159.67C410.426 159.434 410.469 159.199 410.518 158.966C410.566 158.732 410.621 158.5 410.682 158.269C410.741 158.038 410.806 157.808 410.877 157.581C410.949 157.353 411.026 157.127 411.11 156.903C411.192 156.68 411.28 156.458 411.374 156.239C411.469 156.019 411.568 155.802 411.673 155.587C411.777 155.373 411.887 155.161 412.001 154.952C412.116 154.743 412.236 154.537 412.361 154.334C412.486 154.13 412.616 153.931 412.751 153.734C412.886 153.537 413.026 153.344 413.172 153.155C415.638 149.924 419 148.453 422.927 147.893Z" fill="#FEFEFE"/>
<path d="M430.923 151.209C431.226 151.21 431.531 151.259 431.83 151.291C432.686 152.087 432.935 153.023 433.004 154.167C433.612 154.531 433.803 154.73 434.136 155.354C434.174 155.542 434.208 155.638 434.174 155.846C434.063 156.552 425.29 171.938 424.063 173.64C423.837 173.954 423.527 174.202 423.21 174.415C422.759 172.822 412.204 162.539 410.414 161.438C411.439 160.857 412.389 160.171 413.263 159.38C413.55 159.26 413.933 159.08 414.254 159.099C415.615 159.182 419.971 162.413 420.885 163.479C422.269 162.587 425.099 158.69 425.524 157.05C423.665 156.361 421.868 155.577 419.963 155.013C417.286 155.695 415.156 157.522 412.479 158.083C413.902 157.038 415.237 155.726 416.789 154.893C421.482 152.374 423.046 156.453 426.162 155.779C427.455 155.5 430.216 152.384 430.923 151.209Z" fill="#1C2244"/>
<path d="M223.96 26.3689C230.407 25.9806 236.223 26.8336 241.962 29.9794L228.847 42.97C226.558 45.2343 223.561 47.6388 221.828 50.3349C221.712 50.5138 221.603 50.6966 221.5 50.8831C221.398 51.0694 221.302 51.2593 221.213 51.4527C221.124 51.6459 221.041 51.8421 220.966 52.0411C220.89 52.2402 220.822 52.4418 220.761 52.646C220.699 52.8499 220.645 53.0557 220.598 53.2634C220.552 53.4709 220.512 53.6799 220.48 53.8905C220.448 54.101 220.423 54.3125 220.406 54.5248C220.389 54.7371 220.379 54.9497 220.377 55.1626C220.376 55.3101 220.38 55.4575 220.386 55.6047C220.393 55.752 220.404 55.899 220.418 56.0457C220.433 56.1925 220.45 56.3387 220.472 56.4844C220.493 56.6304 220.519 56.7756 220.547 56.9201C220.576 57.0648 220.608 57.2086 220.644 57.3515C220.68 57.4944 220.72 57.6364 220.763 57.7776C220.806 57.9184 220.852 58.0582 220.902 58.1967C220.953 58.3356 221.006 58.4729 221.063 58.6087C221.12 58.7447 221.18 58.8792 221.243 59.0121C221.307 59.1451 221.374 59.2764 221.444 59.406C221.514 59.5357 221.588 59.6634 221.664 59.7892C221.741 59.9153 221.821 60.0393 221.903 60.1613C221.986 60.2833 222.072 60.4031 222.161 60.5208C222.249 60.6384 222.341 60.7538 222.435 60.8669C222.53 60.9799 222.627 61.0905 222.727 61.1988C222.827 61.307 222.929 61.4126 223.035 61.5157C225.014 63.4899 227.667 64.4194 230.436 64.3906C230.693 64.3901 230.951 64.3803 231.207 64.3612C231.464 64.342 231.72 64.3137 231.975 64.2762C232.23 64.2387 232.484 64.1921 232.735 64.1365C232.987 64.0806 233.236 64.0159 233.483 63.9424C233.73 63.8686 233.974 63.7862 234.215 63.6951C234.456 63.604 234.693 63.5043 234.927 63.3961C235.161 63.2879 235.391 63.1714 235.616 63.0466C235.842 62.9218 236.062 62.7891 236.278 62.6485C238.33 61.3412 240.122 59.112 241.861 57.3986C246.323 53.0639 250.712 48.6568 255.029 44.1774C258.525 51.1492 259.627 59.3674 257.545 66.9252C255.332 74.9586 249.817 81.2956 242.652 85.3653C233.499 90.5643 224.497 90.6723 214.593 87.9122C207.449 95.3326 199.82 102.411 192.489 109.662L134.722 166.43C134.45 168.444 134.169 170.427 132.912 172.096C131.011 174.62 127.745 176.274 125.456 178.493L94.5084 208.93C89.27 213.861 68.6818 235.456 63.8155 237.175C60.3134 238.412 56.2356 237.688 52.9851 236.066C49.5464 234.35 47.2859 231.217 46.1188 227.605C45.2802 225.009 45.0694 221.618 46.2939 219.098C48.507 214.543 62.3727 202.266 66.7445 197.947C77.4902 187.193 88.3221 176.527 99.2404 165.949C101.274 163.993 109.513 156.73 110.392 154.863C110.687 154.236 110.951 153.475 111.38 152.927C112.793 151.123 116.109 150.565 118.179 150.2C122.75 145.989 126.932 141.312 131.38 136.962C145.593 123.052 159.704 109.041 173.713 94.9268C176.744 91.8881 192.622 76.8562 194.141 74.0486C196.762 69.2053 195.017 64.8336 194.709 59.7797C194.237 52.0537 197.042 44.6035 201.603 38.4689C207.115 31.0537 215.09 27.7166 223.96 26.3689Z" fill="#1C2244"/>
<path d="M116.531 154.169C116.98 154.253 117.443 154.353 117.843 154.584C119.62 155.611 130.518 166.329 130.816 167.643C130.525 168.576 130.056 169.239 129.49 170.015C129.236 169.947 129.263 169.976 129.061 169.854C128.24 169.358 115.757 156.965 115.396 156.325C115.292 156.139 115.286 155.913 115.23 155.707C115.43 154.953 115.942 154.639 116.531 154.169Z" fill="#FEFEFE"/>
<path d="M200.264 71.6506C201.256 72.6119 201.869 74.4915 202.649 75.6878C205.079 79.411 208.603 81.9372 212.265 84.3106C205.269 91.3799 198.185 98.3607 191.014 105.253L165.675 130.358L142.769 152.961C139.042 156.619 135.428 160.52 131.498 163.954L129.164 161.323C134.411 156.317 139.444 151.117 144.614 146.036L201.956 89.4147C203.385 88.169 205.019 86.7985 205.235 84.7792C205.354 83.6564 204.955 82.5489 204.203 81.7159C204.102 81.6047 203.995 81.4989 203.882 81.3986C203.77 81.298 203.653 81.2035 203.531 81.1149C203.409 81.0266 203.283 80.9444 203.153 80.8684C203.023 80.7926 202.889 80.7235 202.752 80.6613C202.615 80.599 202.475 80.5439 202.333 80.4959C202.19 80.4477 202.045 80.4068 201.898 80.3734C201.752 80.3397 201.604 80.3137 201.454 80.2953C201.304 80.2767 201.154 80.2657 201.004 80.2624C199.76 80.2295 198.999 80.5966 198.065 81.3756C194.796 84.1016 191.812 87.4505 188.786 90.4563C182.804 96.3674 176.861 102.318 170.957 108.308C155.306 124.165 139.496 139.983 123.454 155.439L121.012 153.153C125.559 149.137 129.722 144.579 134.022 140.295L161.221 113.153L186.815 87.8191C190.607 84.0503 194.861 80.4909 198.29 76.3948C199.443 75.0182 199.846 73.3561 200.264 71.6506Z" fill="#FEFEFE"/>
<path d="M224.693 30.7196C227.897 30.3377 231.197 30.8735 234.353 31.4342C230.178 35.7093 220.869 43.6185 218.104 48.11C217.953 48.3594 217.81 48.6133 217.676 48.8718C217.541 49.1306 217.415 49.3933 217.297 49.66C217.179 49.9265 217.07 50.1966 216.969 50.4704C216.869 50.744 216.777 51.0207 216.694 51.3004C216.611 51.5798 216.537 51.8617 216.472 52.146C216.408 52.4303 216.352 52.7164 216.306 53.0043C216.259 53.2921 216.222 53.5813 216.194 53.8717C216.166 54.1619 216.147 54.4527 216.138 54.7442C216.133 54.9608 216.134 55.1775 216.141 55.3942C216.147 55.6106 216.159 55.8269 216.176 56.043C216.193 56.2589 216.216 56.4743 216.244 56.6892C216.272 56.9041 216.305 57.1181 216.344 57.3312C216.382 57.5446 216.426 57.7566 216.476 57.9674C216.525 58.1785 216.58 58.3881 216.64 58.5964C216.7 58.8046 216.765 59.0112 216.835 59.2162C216.905 59.4211 216.981 59.6241 217.061 59.8252C217.142 60.0266 217.227 60.2256 217.317 60.4224C217.408 60.6194 217.503 60.8139 217.603 61.0058C217.703 61.198 217.808 61.3875 217.918 61.5743C218.028 61.7611 218.142 61.945 218.261 62.1259C218.38 62.3071 218.503 62.4851 218.631 62.66C218.759 62.8348 218.891 63.0063 219.027 63.1744C219.164 63.3426 219.304 63.5072 219.449 63.6683C219.594 63.8296 219.742 63.987 219.895 64.1407C222.535 66.8219 226.163 68.2479 229.909 68.2655C236.983 68.298 240.853 64.2681 245.592 59.7395C248.186 57.2624 250.761 54.7653 253.316 52.2482C254.845 59.96 253.901 66.2469 249.88 73.0617C249.535 73.5824 249.171 74.0893 248.789 74.5826C248.506 74.9507 248.214 75.3115 247.913 75.6652C247.612 76.019 247.303 76.365 246.985 76.7034C246.667 77.0421 246.341 77.3726 246.007 77.6949C245.673 78.0172 245.331 78.3311 244.981 78.6366C244.632 78.9421 244.275 79.2388 243.911 79.5267C243.546 79.8145 243.176 80.0932 242.798 80.3627C242.42 80.6325 242.035 80.8927 241.645 81.1433C241.254 81.3939 240.857 81.6347 240.455 81.8657C240.052 82.0966 239.644 82.3176 239.231 82.5287C238.817 82.7395 238.399 82.9401 237.976 83.1305C237.553 83.3209 237.125 83.5005 236.693 83.6695C236.261 83.8387 235.825 83.9972 235.385 84.1449C234.945 84.2927 234.502 84.4294 234.055 84.5549C233.608 84.6807 233.159 84.7954 232.706 84.8991C232.254 85.0027 231.799 85.0951 231.342 85.1762C230.886 85.2576 230.427 85.3276 229.967 85.386C222.71 86.3078 215.568 84.4592 209.795 79.934C204.188 75.5397 200.099 68.9553 199.241 61.827C199.189 61.3732 199.149 60.9184 199.119 60.4626C199.089 60.0071 199.071 59.551 199.063 59.0944C199.056 58.6376 199.059 58.181 199.074 57.7247C199.089 57.2682 199.114 56.8124 199.151 56.3573C199.188 55.902 199.236 55.448 199.295 54.9953C199.354 54.5423 199.424 54.0911 199.505 53.6417C199.585 53.1922 199.677 52.7451 199.78 52.3003C199.882 51.8552 199.996 51.4129 200.12 50.9735C200.244 50.534 200.379 50.0978 200.524 49.665C200.669 49.2322 200.825 48.803 200.991 48.3776C201.158 47.9524 201.334 47.5315 201.521 47.1147C201.707 46.6982 201.904 46.2864 202.111 45.8794C202.318 45.4721 202.534 45.0702 202.76 44.6739C202.986 44.2773 203.222 43.8864 203.468 43.5013C203.713 43.1162 203.967 42.7374 204.231 42.3648C204.494 41.9922 204.767 41.6262 205.048 41.2669C209.986 34.9831 216.853 31.6335 224.693 30.7196Z" fill="#FEFEFE"/>
<path d="M222.767 34.7803C223.715 34.6549 224.729 34.6508 225.686 34.5906C224.384 36.0661 222.86 37.3801 221.434 38.7376C216.701 43.2406 212.948 47.8306 212.83 54.6963C212.825 54.9635 212.826 55.2306 212.834 55.4975C212.842 55.7647 212.857 56.0316 212.878 56.298C212.899 56.5644 212.926 56.8301 212.961 57.095C212.995 57.3599 213.036 57.6239 213.083 57.887C213.13 58.1499 213.184 58.4115 213.244 58.6718C213.305 58.9321 213.372 59.1908 213.444 59.4478C213.518 59.7048 213.597 59.9597 213.683 60.2126C213.769 60.4658 213.861 60.7167 213.959 60.9652C214.057 61.2136 214.161 61.4595 214.272 61.7029C214.382 61.9461 214.498 62.1865 214.621 62.4241C214.743 62.6615 214.871 62.8958 215.005 63.127C215.139 63.3582 215.278 63.5859 215.423 63.8099C215.569 64.0343 215.719 64.2548 215.875 64.4714C216.031 64.6881 216.193 64.9008 216.359 65.1096C216.526 65.3183 216.698 65.5228 216.874 65.7228C217.051 65.9232 217.233 66.1189 217.419 66.3101C220.841 69.8274 225.135 71.4937 230.003 71.5385C239.658 71.627 243.756 66.3503 250.101 60.1315C249.356 65.3278 248.545 68.8072 245.263 73.0392C245.041 73.3158 244.812 73.5876 244.578 73.8545C244.344 74.1212 244.104 74.3827 243.858 74.6389C243.613 74.8954 243.362 75.1464 243.105 75.3919C242.849 75.6374 242.587 75.8772 242.32 76.1112C242.053 76.3452 241.781 76.5734 241.505 76.7957C241.228 77.0182 240.946 77.2345 240.66 77.4446C240.374 77.6546 240.084 77.8584 239.789 78.0559C239.494 78.2534 239.195 78.4445 238.892 78.629C238.589 78.8135 238.281 78.9912 237.97 79.1622C237.66 79.3335 237.345 79.4978 237.027 79.6553C236.709 79.8128 236.388 79.9633 236.063 80.107C235.739 80.2507 235.411 80.3872 235.081 80.5166C234.751 80.6458 234.417 80.7679 234.082 80.883C233.746 80.9978 233.408 81.1054 233.067 81.2057C232.727 81.3057 232.385 81.3985 232.04 81.484C231.696 81.5692 231.35 81.6471 231.002 81.7175C230.637 81.7882 230.271 81.8501 229.903 81.9032C229.535 81.956 229.166 81.9999 228.796 82.0349C228.426 82.0698 228.055 82.0957 227.684 82.1126C227.313 82.1294 226.941 82.1373 226.569 82.1363C226.198 82.135 225.827 82.1247 225.455 82.1053C225.084 82.0862 224.714 82.0578 224.344 82.0203C223.974 81.9831 223.605 81.9367 223.238 81.8814C222.87 81.826 222.504 81.7618 222.14 81.6888C221.776 81.6156 221.413 81.5335 221.053 81.4427C220.692 81.3518 220.334 81.2523 219.979 81.1441C219.623 81.0359 219.27 80.919 218.92 80.7934C218.571 80.6678 218.224 80.534 217.881 80.3918C217.537 80.2494 217.197 80.0987 216.861 79.9397C216.525 79.781 216.193 79.6141 215.865 79.439C215.537 79.2637 215.214 79.0807 214.895 78.8901C214.576 78.6992 214.261 78.5006 213.952 78.2944C208.26 74.4334 204.516 68.5285 203.243 61.7787C202.14 55.9274 203.452 49.4617 206.859 44.5682C210.669 39.0959 216.288 35.9269 222.767 34.7803Z" fill="#1C2244"/>
<path d="M113.028 158.81L115.369 160.84C111.357 164.047 107.687 167.934 103.985 171.503C96.0098 179.192 88.2149 187.04 80.3276 194.814C76.8243 198.268 52.1002 221.975 50.7874 224.6L50.9824 224.918C51.1591 224.912 51.3434 224.951 51.5128 224.9C52.2233 224.686 107.808 168.168 115.769 161.688C116.581 161.73 116.714 162.065 117.284 162.619L118.143 163.435C119.143 164.356 120.125 165.336 121.172 166.201L121.432 166.401C120.577 167.528 119.501 168.517 118.506 169.521C119.691 168.749 120.471 167.641 121.573 166.802L121.891 166.932L122.491 167.829C122.414 168.101 122.353 168.376 122.233 168.633C121.406 170.927 115.644 175.275 113.817 177.543C115.797 176.861 117.673 173.549 119.496 172.262L119.862 172.514C121.175 171.448 122.431 170.294 123.708 169.183C124.447 169.904 125.129 170.695 125.827 171.455C122.841 174.094 120.076 177.018 117.227 179.806C112.086 184.752 107.006 189.76 101.986 194.829C95.2484 201.586 88.2861 208.121 81.5441 214.871C77.1501 219.27 72.9014 223.785 68.4153 228.096C66.6129 229.827 64.8297 231.708 62.8159 233.192C61.6837 233.258 60.5507 233.277 59.417 233.248C56.8009 233.162 54.1844 231.78 52.4298 229.876C50.0933 227.34 49.6198 224.603 49.7456 221.273C52.3644 217.102 62.4209 208.384 66.4229 204.444L113.028 158.81Z" fill="#FEFEFE"/>
<path d="M119.862 172.514C119.043 173.714 117.463 174.921 116.401 175.949C113.053 179.191 109.626 182.36 106.315 185.639L73.7416 217.921L64.8676 226.633C63.2339 228.229 61.5463 230.098 59.7023 231.441C59.129 231.858 58.4873 232.281 57.7691 232.188C58.0426 231.419 58.6395 230.812 59.2055 230.239C72.5752 216.701 86.4252 203.609 99.9433 190.215L115.159 175.233C117.286 173.152 119.724 170.164 122.233 168.633C121.406 170.927 115.644 175.275 113.817 177.543C115.797 176.861 117.673 173.549 119.496 172.262L119.862 172.514Z" fill="#20233A"/>
<path d="M121.172 166.201L121.432 166.401C120.577 167.528 119.501 168.517 118.506 169.521C119.691 168.749 120.471 167.641 121.573 166.802L121.891 166.932C121.025 168.289 66.2007 221.583 65.759 221.815C63.1467 225.291 59.3715 228.45 56.2276 231.471C55.6207 231.634 55.6295 231.647 55.0632 231.381L55.018 230.96C56.3339 229.268 62.8584 222.808 64.7146 221.486C67.3567 217.882 71.4115 214.692 74.6158 211.568L93.5803 192.935C99.2133 187.474 104.814 181.98 110.382 176.453C113.855 173.021 117.327 169.2 121.172 166.201Z" fill="#20233A"/>
<path d="M117.284 162.619L118.143 163.435C109.992 172.003 101.149 179.951 92.7294 188.254L80.5264 200.31C78.583 202.211 76.6304 204.384 74.4988 206.065C73.1454 207.869 52.8581 227.703 52.0761 228.037L51.9354 227.518C52.0053 227.006 52.1771 226.582 52.4922 226.172C54.4674 223.602 57.2521 221.346 59.5504 219.047C64.4442 214.153 69.2585 209.152 74.373 204.487C76.2269 201.798 83.1104 195.882 85.7866 193.289L104.045 175.373C108.446 171.112 112.998 166.997 117.284 162.619Z" fill="#20233A"/>
<path d="M306.513 74.3985C307.655 74.3143 308.799 74.257 309.944 74.2266C311.089 74.1963 312.234 74.1931 313.379 74.2171C314.524 74.2408 315.668 74.2916 316.81 74.3694C317.953 74.4475 319.093 74.5524 320.231 74.6841C321.369 74.8158 322.503 74.9744 323.633 75.1599C324.764 75.3452 325.889 75.5571 327.009 75.7958C328.129 76.0341 329.243 76.2989 330.351 76.5901C331.459 76.8813 332.559 77.1985 333.652 77.5418C347.376 81.7791 360.406 90.5582 367.173 103.571C371.67 112.221 372.032 122.244 369.039 131.442C365.11 143.521 354.755 152.629 343.687 158.176C328.519 165.777 310.089 167.358 293.603 163.901C289.993 163.144 286.466 161.991 282.969 160.833C281.75 161.287 280.522 161.719 279.287 162.127C276.839 162.781 274.385 163.407 271.923 164.004C271.969 170.649 271.982 177.261 270.304 183.736C266.278 183.192 262.239 182.784 258.186 182.512C259.793 177.104 259.884 171.226 260.214 165.635C255.133 165.837 250.329 165.478 245.275 165.061C252.434 161.018 260.332 155.235 264.513 148.055C257.588 140.788 252.424 132.909 252.042 122.508C251.644 111.662 255.9 101.652 263.211 93.765C274.226 81.8806 290.412 75.0076 306.513 74.3985Z" fill="#1C2244"/>
<path d="M305.251 78.4482C309.78 77.8889 314.847 78.1569 319.37 78.7625C334.801 80.8285 350.014 86.6044 359.704 99.4788C365.074 106.614 367.801 114.818 366.534 123.777C365.054 134.246 358.878 142.921 350.55 149.147C337.372 158.997 318.685 163.268 302.454 160.938C295.597 160.449 289.16 158.211 282.557 156.489C273.792 159.676 265.907 160.826 256.695 161.846C262.52 157.61 267.107 153.815 269.405 146.696C262.676 140.949 257.578 133.388 256.538 124.442C255.436 114.955 258.597 105.953 264.467 98.57C274.24 86.2813 290.082 80.1505 305.251 78.4482Z" fill="#FEFEFE"/>
<path d="M309.877 86.6128C314.653 86.6668 318.641 87.1411 322.794 89.7078C328.279 93.0969 332.672 98.6415 334.101 104.99C334.203 105.455 334.289 105.923 334.36 106.394C334.43 106.864 334.485 107.337 334.524 107.811C334.564 108.285 334.587 108.76 334.595 109.236C334.603 109.712 334.595 110.187 334.571 110.663C334.548 111.138 334.508 111.612 334.454 112.085C334.399 112.557 334.328 113.028 334.242 113.495C334.156 113.963 334.054 114.428 333.937 114.89C333.82 115.351 333.688 115.808 333.541 116.26C332.182 120.339 329.17 124.07 327.026 127.801C323.184 134.485 319.623 141.406 315.549 147.942C318.436 147.992 326.467 148.513 328.597 150.159C329.075 150.528 329.054 150.629 329.114 151.193C328.975 151.387 328.927 151.476 328.766 151.633C326.704 153.649 317.57 153.976 314.528 154.116C308.185 154.175 301.231 154.172 295.135 152.199C294.254 151.914 293.425 151.673 292.987 150.815L293.373 150.294C296.507 148.563 303.501 148.04 307.09 148.001C303.852 140.435 299.219 133.198 295.21 126.01C293.847 123.565 292.252 121.076 291.169 118.495C290.723 117.432 290.356 116.343 290.066 115.227C289.777 114.111 289.569 112.981 289.442 111.835C288.795 105.69 290.958 99.4301 294.841 94.6989C295.07 94.4144 295.306 94.1357 295.55 93.8629C295.793 93.5903 296.043 93.3239 296.299 93.0636C296.556 92.8033 296.819 92.5494 297.088 92.3022C297.358 92.0551 297.633 91.8148 297.914 91.5813C298.195 91.3481 298.482 91.1218 298.774 90.9026C299.067 90.6836 299.365 90.4719 299.667 90.2675C299.971 90.0633 300.278 89.8668 300.591 89.678C300.904 89.4891 301.221 89.3082 301.543 89.1351C301.865 88.9621 302.191 88.7972 302.521 88.6405C302.851 88.4836 303.184 88.3351 303.522 88.195C303.859 88.0548 304.2 87.9233 304.544 87.8003C304.888 87.677 305.234 87.5626 305.584 87.4569C305.934 87.351 306.286 87.2539 306.64 87.1656C306.994 87.0773 307.351 86.9979 307.709 86.9275C308.068 86.857 308.428 86.7955 308.789 86.7429C309.151 86.6906 309.513 86.6472 309.877 86.6128Z" fill="#1C2244"/>
<path d="M311.451 90.6997C314.524 90.7858 317.343 91.3241 320.109 92.721C320.39 92.8652 320.668 93.0162 320.942 93.1742C321.216 93.3322 321.486 93.4968 321.752 93.668C322.017 93.8395 322.279 94.0174 322.536 94.2017C322.793 94.3859 323.045 94.5766 323.293 94.7736C323.54 94.9704 323.783 95.1733 324.02 95.3823C324.258 95.5913 324.49 95.8059 324.717 96.0262C324.944 96.2467 325.165 96.4727 325.381 96.7041C325.596 96.9356 325.806 97.1723 326.01 97.4142C326.214 97.6559 326.412 97.9026 326.604 98.1542C326.795 98.4061 326.981 98.6625 327.16 98.9233C327.339 99.1841 327.511 99.4493 327.677 99.7188C327.843 99.9883 328.002 100.262 328.154 100.539C328.307 100.816 328.452 101.097 328.591 101.382C328.729 101.667 328.861 101.954 328.985 102.245C329.109 102.537 329.226 102.831 329.335 103.127C329.445 103.424 329.547 103.724 329.642 104.026C330.794 107.573 330.859 111.566 329.728 115.136C328.785 118.117 326.573 120.699 325.008 123.387C320.55 131.044 315.823 138.717 311.768 146.59C311.609 146.639 311.43 146.528 311.274 146.474C309.82 144.238 308.707 141.79 307.414 139.459L300.538 127.316C298.589 123.824 296.143 120.46 294.535 116.807C294.352 116.386 294.187 115.958 294.04 115.522C293.893 115.087 293.765 114.647 293.655 114.201C293.545 113.755 293.454 113.305 293.381 112.852C293.309 112.398 293.256 111.943 293.221 111.485C292.792 106.367 294.307 101.452 297.634 97.5398C301.357 93.1608 305.823 91.1499 311.451 90.6997Z" fill="#FEFEFE"/>
<path d="M303.227 118.99C303.329 119.081 303.432 119.172 303.539 119.259C303.702 119.393 303.869 119.523 304.038 119.649C304.208 119.775 304.381 119.896 304.557 120.013C304.733 120.131 304.912 120.243 305.093 120.352C305.275 120.46 305.459 120.563 305.646 120.662C305.833 120.761 306.022 120.856 306.213 120.945C306.404 121.035 306.598 121.119 306.794 121.199C306.99 121.279 307.187 121.354 307.386 121.424C307.586 121.494 307.787 121.559 307.99 121.619C308.192 121.678 308.396 121.733 308.602 121.783C308.807 121.832 309.014 121.877 309.221 121.916C309.429 121.955 309.637 121.989 309.847 122.018C310.056 122.047 310.266 122.071 310.476 122.089C310.687 122.107 310.898 122.12 311.109 122.128C311.32 122.136 311.532 122.138 311.743 122.135C311.954 122.132 312.165 122.124 312.376 122.111C312.587 122.097 312.797 122.079 313.007 122.055C316.713 121.652 319.518 119.679 321.797 116.827L322.578 117.42C320.822 120.195 317.812 122.147 314.634 122.857C314.411 122.907 314.186 122.952 313.959 122.991C313.733 123.029 313.506 123.063 313.279 123.09C313.051 123.118 312.823 123.139 312.594 123.155C312.365 123.171 312.136 123.182 311.907 123.186C311.677 123.191 311.448 123.19 311.219 123.183C310.989 123.176 310.761 123.163 310.532 123.145C310.303 123.127 310.075 123.102 309.848 123.073C309.62 123.043 309.394 123.007 309.168 122.966C308.943 122.925 308.718 122.878 308.495 122.826C308.271 122.773 308.049 122.716 307.829 122.652C307.609 122.589 307.39 122.52 307.173 122.445C306.956 122.371 306.741 122.291 306.528 122.206C306.315 122.12 306.104 122.03 305.896 121.934C305.687 121.838 305.481 121.737 305.278 121.631C305.074 121.525 304.874 121.414 304.676 121.298C304.478 121.182 304.283 121.061 304.091 120.935C303.289 120.409 302.586 119.793 301.887 119.138L303.227 118.99Z" fill="#20233A"/>
<path d="M298.479 106.572C298.519 106.362 298.565 106.152 298.616 105.944C298.667 105.735 298.723 105.528 298.784 105.323C298.846 105.117 298.912 104.913 298.983 104.711C299.055 104.509 299.131 104.308 299.212 104.11C299.294 103.911 299.38 103.715 299.471 103.521C299.562 103.327 299.658 103.135 299.758 102.945C299.859 102.756 299.964 102.569 300.074 102.385C300.183 102.201 300.298 102.02 300.417 101.841C300.535 101.663 300.659 101.487 300.786 101.315C300.914 101.143 301.046 100.973 301.181 100.807C301.317 100.642 301.457 100.479 301.601 100.32C301.745 100.162 301.893 100.007 302.044 99.855C302.196 99.7034 302.352 99.5558 302.511 99.4121C302.669 99.2681 302.832 99.1284 302.998 98.9929C303.164 98.8571 303.333 98.7256 303.505 98.5982C303.678 98.4711 303.853 98.3482 304.032 98.2296C307.204 96.1172 310.904 95.52 314.613 96.2998C318.109 97.0348 321.266 99.084 323.185 102.127C325.124 105.203 325.61 109.258 324.806 112.773C324.429 114.421 323.722 116.151 322.578 117.42L321.797 116.827C322.583 115.713 323.168 114.539 323.569 113.234C324.568 109.982 324.359 106.504 322.753 103.48C322.658 103.3 322.559 103.122 322.455 102.947C322.351 102.773 322.243 102.6 322.131 102.431C322.018 102.261 321.902 102.095 321.781 101.931C321.66 101.768 321.535 101.608 321.406 101.451C321.277 101.293 321.144 101.139 321.007 100.989C320.87 100.839 320.73 100.692 320.585 100.548C320.441 100.405 320.293 100.265 320.142 100.129C319.991 99.9937 319.836 99.8619 319.678 99.734C319.52 99.6059 319.359 99.482 319.195 99.3623C319.031 99.2424 318.863 99.1268 318.693 99.0155C318.523 98.9042 318.351 98.7973 318.175 98.6947C317.999 98.5921 317.822 98.4941 317.641 98.4007C317.461 98.307 317.278 98.2181 317.093 98.1339C316.908 98.0496 316.721 97.9701 316.532 97.8954C316.343 97.8206 316.152 97.7507 315.96 97.6856C315.767 97.6205 315.573 97.5603 315.377 97.5049C312.124 96.5762 308.559 96.7565 305.581 98.4347C302.184 100.349 300.357 103.319 299.313 106.979C299.01 111.519 299.461 114.724 302.564 118.266C302.778 118.514 302.999 118.755 303.227 118.99L301.887 119.138C301.41 118.597 300.945 118.049 300.543 117.449C298.326 114.138 297.7 110.459 298.479 106.572Z" fill="#171834"/>
<path d="M299.313 106.979C300.357 103.319 302.184 100.349 305.581 98.4348C308.559 96.7566 312.124 96.5763 315.377 97.505C315.573 97.5604 315.767 97.6206 315.96 97.6857C316.152 97.7508 316.343 97.8207 316.532 97.8955C316.721 97.9702 316.908 98.0497 317.093 98.134C317.278 98.2182 317.461 98.3071 317.641 98.4008C317.822 98.4942 317.999 98.5922 318.175 98.6948C318.35 98.7974 318.523 98.9043 318.693 99.0156C318.863 99.1268 319.031 99.2424 319.195 99.3624C319.359 99.4821 319.52 99.606 319.678 99.7341C319.836 99.862 319.991 99.9938 320.142 100.13C320.293 100.265 320.441 100.405 320.585 100.548C320.73 100.692 320.87 100.839 321.007 100.989C321.144 101.14 321.277 101.293 321.406 101.451C321.535 101.608 321.66 101.768 321.781 101.931C321.902 102.095 322.018 102.262 322.131 102.431C322.243 102.6 322.351 102.773 322.455 102.947C322.559 103.123 322.658 103.3 322.753 103.48C324.359 106.504 324.568 109.982 323.569 113.234C323.168 114.539 322.583 115.713 321.797 116.827C319.518 119.679 316.713 121.652 313.007 122.055C312.797 122.079 312.587 122.098 312.376 122.111C312.165 122.124 311.954 122.132 311.743 122.135C311.532 122.138 311.32 122.136 311.109 122.128C310.898 122.12 310.687 122.107 310.476 122.089C310.266 122.071 310.056 122.047 309.847 122.018C309.637 121.99 309.429 121.955 309.221 121.916C309.014 121.877 308.807 121.832 308.602 121.783C308.396 121.733 308.192 121.678 307.99 121.619C307.787 121.559 307.586 121.494 307.387 121.424C307.187 121.354 306.99 121.279 306.794 121.199C306.598 121.119 306.404 121.035 306.213 120.945C306.022 120.856 305.833 120.761 305.646 120.662C305.459 120.563 305.275 120.46 305.093 120.352C304.912 120.243 304.733 120.131 304.557 120.013C304.381 119.896 304.208 119.775 304.038 119.649C303.869 119.523 303.702 119.393 303.539 119.259C303.432 119.172 303.329 119.081 303.227 118.99C302.999 118.755 302.778 118.514 302.564 118.266C299.461 114.724 299.01 111.519 299.313 106.979Z" fill="#FEFEFE"/>
<path d="M312.505 114.005C312.146 114.07 311.708 114.078 311.347 114.037C311.183 114.016 311.02 113.987 310.86 113.949C310.699 113.911 310.54 113.865 310.384 113.81C310.228 113.755 310.076 113.692 309.927 113.621C309.778 113.55 309.633 113.471 309.492 113.384C309.351 113.297 309.216 113.203 309.085 113.102C308.954 113.001 308.829 112.892 308.71 112.778C308.591 112.663 308.479 112.542 308.373 112.415C308.267 112.289 308.168 112.156 308.076 112.019C307.269 110.807 307.007 109.198 307.384 107.791C307.684 106.675 308.372 105.694 309.39 105.126C310.611 104.445 312.371 104.342 313.681 104.817C314.834 105.235 315.453 106.177 315.971 107.229C316.466 108.642 316.66 109.812 315.977 111.218C315.38 112.449 314.163 113.519 312.846 113.911C312.733 113.944 312.619 113.973 312.505 114.005Z" fill="#1C2244"/>
<path d="M222.004 186.41C224.772 186.002 227.899 186.266 230.713 186.273C237.652 186.235 244.588 186.384 251.519 186.72C286.936 188.432 321.29 191.03 353.858 206.57C364.054 211.434 373.844 216.897 383.534 222.698C388.119 225.442 394.089 229.986 398.754 231.901C403.435 233.824 408.843 234.458 413.738 235.769C426.778 239.26 439.914 242.715 452.385 247.949C462.064 252.012 470.764 258.18 476.007 267.482C477.636 270.37 478.668 273.571 480.248 276.414C481.456 278.583 483.666 279.461 484.726 282.135C485.338 283.671 485.537 285.288 485.586 286.93C485.72 291.235 484.236 312.243 482.944 315.296C484.064 315.992 485.013 316.628 485.789 317.731C486.47 318.701 486.806 319.951 486.573 321.116C486.634 321.327 486.684 321.443 486.695 321.653C486.768 322.684 486.091 324.172 485.437 324.922C482.359 328.461 471.028 328.266 466.458 328.606C466.603 330.384 462.435 335.827 461.215 337.381C454.966 345.348 447.306 349.49 437.249 350.709C444.863 351.563 452.603 351.607 460.247 352.339C462.634 352.568 465.142 352.67 467.483 353.201C468.312 353.388 469.188 353.591 469.655 354.329C469.597 354.395 469.544 354.465 469.483 354.528C467.398 356.68 442.239 357.41 437.818 357.616C356.697 360.718 275.551 361.704 194.379 360.574C190.676 360.318 186.887 360.434 183.175 360.396L166.011 360.079C154.805 359.829 77.7642 357.798 74.012 354.084L74.2865 353.678C77.5795 352.141 87.3205 352.026 91.3829 351.762C103.906 351.053 116.436 350.548 128.975 350.245C144.208 349.795 159.443 349.437 174.68 349.173C181.276 349.041 187.871 348.959 194.468 348.927C200.627 348.945 207.116 349.223 213.238 348.64C212.662 346.195 212.229 343.743 211.82 341.264C216.916 338.911 222.045 336.63 227.205 334.421C230.108 333.152 233.115 331.971 235.889 330.443L150.964 319.332C149.691 324.54 148.131 330.019 144.898 334.376C142.12 338.12 138.819 340.038 134.219 340.708C130.151 341.3 115.576 341.862 111.724 341.082C109.622 340.656 107.675 339.68 105.968 338.394C97.9257 332.341 95.921 321.428 94.5948 312.082C92.6701 310.904 90.7875 309.38 89.28 307.699C87.9312 306.194 86.9197 304.48 86.3124 302.549C84.6577 297.287 83.5973 280.793 83.9468 274.866C84.1751 270.99 85.7396 267.357 86.3614 263.553C86.6906 261.538 86.8375 259.495 87.2509 257.492C87.9465 254.121 89.0639 250.8 89.9542 247.472C90.6096 245.022 91.1385 242.347 92.2923 240.078C93.4709 237.76 95.8534 235.506 97.6052 233.603C105.782 224.72 114.677 216.85 123.605 208.767C122.08 207.31 120.616 205.858 119.243 204.254C119.288 204.244 119.332 204.234 119.377 204.224C121.581 203.771 123.711 202.771 125.895 202.397C127.589 202.107 129.538 202.64 131.161 202.181C134.417 201.26 137.56 199.885 140.796 198.875C148.623 196.434 156.785 194.254 164.803 192.554C183.78 188.531 202.732 187.686 222.004 186.41Z" fill="#1C2244"/>
<path d="M470.68 274.986C470.836 274.964 470.997 274.944 471.158 274.931C472.469 274.83 475.15 274.486 476.163 275.378C476.282 276.069 476.194 276.089 475.85 276.668C474.416 276.337 472.213 277.198 471.066 276.4C470.706 276.151 470.741 275.408 470.68 274.986Z" fill="#FEFEFE"/>
<path d="M190 229.355C191.523 230.738 192.891 232.08 194.077 233.772L189.577 233.766C189.625 232.297 189.84 230.817 190 229.355Z" fill="#FEFEFE"/>
<path d="M470.091 265.542L470.523 265.579C471.314 266.009 471.792 267.051 472.236 267.81C472.882 268.916 474.301 271.142 473.961 272.435C473.012 272.787 472.064 272.787 471.066 272.833L471.1 272.667C471.517 270.627 471.173 267.341 470.091 265.542Z" fill="#FEFEFE"/>
<path d="M95.2598 243.74C96.8606 243.843 98.4628 243.914 100.066 243.954C98.7238 246.924 97.0541 249.755 95.4702 252.602C95.2208 253.061 95.0166 253.303 94.6063 253.627C93.8839 253.714 93.417 253.779 92.7382 253.487C92.1649 252.255 94.7979 245.694 95.2598 243.74Z" fill="#FEFEFE"/>
<path d="M215.805 232.686C218.521 233.306 221.519 233.339 224.296 233.537L238.273 234.451C240.513 234.579 243.166 234.451 245.327 234.963L245.644 235.912C242.438 236.188 220.131 235.141 217.198 234.388C216.496 234.208 216.149 233.271 215.805 232.686Z" fill="#FEFEFE"/>
<path d="M348.229 315.723C351.714 316.181 365.062 315.732 366.805 316.625L366.805 317.082L365.881 317.518C362.424 318.467 350.945 319.08 347.621 317.582C347.502 316.834 347.891 316.376 348.229 315.723Z" fill="#FEFEFE"/>
<path d="M363.976 300.478C368.734 300.349 373.911 300.413 378.612 301.13C379.297 301.234 380.011 301.324 380.437 301.892C380.393 301.954 380.356 302.023 380.304 302.078C379.357 303.067 376.91 303.066 375.591 303.193C372.072 303.262 361.568 303.35 358.458 302.495L358.369 302.07C358.984 301.824 359.421 301.303 360.029 301.03C361.12 300.538 362.787 300.567 363.976 300.478Z" fill="#FEFEFE"/>
<path d="M355.848 305.179C358.055 304.901 360.943 305.466 363.205 305.581C367.091 305.78 371.133 305.593 374.976 306.117C375.991 306.255 377.089 306.37 377.727 307.224C377.229 307.976 376.208 308.081 375.393 308.248C368.176 308.867 360.326 307.914 353.081 307.501C353.953 306.675 354.916 305.937 355.848 305.179Z" fill="#FEFEFE"/>
<path d="M350.771 310.309C354.039 310.216 357.425 310.62 360.699 310.754C363.781 310.881 366.92 310.677 369.975 311.166C371.019 311.333 372.568 311.536 373.214 312.429C372.763 313.077 372.261 313.102 371.539 313.335C364.449 314.191 356.116 313.236 348.888 313.028L350.771 310.309Z" fill="#FEFEFE"/>
<path d="M342.513 261.893C343.579 261.962 344.705 262.013 345.667 262.53C346.801 263.14 347.698 264.305 348.035 265.544C348.346 266.688 348.203 267.963 347.583 268.98C346.757 270.333 345.764 270.893 344.295 271.288C343.579 271.299 342.855 271.315 342.155 271.14C341.998 271.1 341.844 271.053 341.692 270.997C341.541 270.941 341.392 270.878 341.247 270.807C341.102 270.736 340.961 270.658 340.824 270.572C340.687 270.486 340.555 270.394 340.427 270.295C340.3 270.195 340.178 270.09 340.061 269.978C339.945 269.866 339.834 269.748 339.73 269.625C339.625 269.502 339.527 269.373 339.436 269.24C339.345 269.107 339.261 268.969 339.184 268.827C339.108 268.683 339.04 268.535 338.979 268.384C338.919 268.233 338.867 268.079 338.823 267.922C338.779 267.765 338.743 267.607 338.716 267.446C338.689 267.285 338.671 267.124 338.661 266.961C338.651 266.799 338.65 266.636 338.657 266.473C338.665 266.311 338.681 266.149 338.705 265.988C338.73 265.827 338.763 265.668 338.805 265.511C338.847 265.353 338.897 265.198 338.955 265.046C339.608 263.311 340.918 262.585 342.513 261.893Z" fill="#FEFEFE"/>
<path d="M361.121 266.511C361 265.893 360.901 265.278 360.812 264.655C361.427 264.292 361.824 264.494 362.515 264.598C364.94 265.359 367.536 265.477 369.997 266.161C368.857 266.859 367.728 267.503 367.397 268.914C367.153 269.953 367.371 271.083 367.576 272.111C367.823 273.041 367.998 273.865 368.889 274.383C370.407 275.265 372.76 275.057 374.473 275.244C378.018 275.851 381.173 275.444 384.548 276.961C380.653 276.996 376.696 276.606 372.809 276.361C369.062 276.125 365.228 276.028 361.515 275.494C361.056 274.965 361.203 274.668 361.226 273.985L360.303 273.426C360.587 271.115 360.13 268.794 359.791 266.512L361.121 266.511Z" fill="#FEFEFE"/>
<path d="M359.791 266.512L361.121 266.511C361.447 268.846 361.745 271.659 361.226 273.985L360.303 273.426C360.587 271.115 360.13 268.794 359.791 266.512Z" fill="#20233A"/>
<path d="M328.741 263.421C332.438 261.506 334.643 260.41 338.909 261.302C337.382 262.929 336.718 264.254 336.054 266.384C336.414 268.205 336.784 269.847 338.038 271.296C339.293 272.748 341.095 273.542 342.99 273.671C345.016 273.809 347.012 273.272 348.518 271.852C350.514 269.971 350.877 267.625 350.911 265.006C353.82 265.556 356.963 265.68 359.791 266.512C360.13 268.795 360.587 271.115 360.303 273.426C359.982 274.145 359.773 274.683 359.135 275.166C354.993 275.595 337.664 273.557 333.426 272.387C331.667 269.528 330.184 266.45 328.741 263.421Z" fill="#FEFEFE"/>
<path d="M231.465 224.916C234.333 224.517 237.859 224.475 240.457 225.94C243.479 227.645 244.732 230.797 245.587 233.985C240.6 234.035 235.46 233.464 230.469 233.204C225.54 232.567 220.32 232.153 215.35 232.092C219.218 227.126 225.637 225.958 231.465 224.916Z" fill="#FEFEFE"/>
<path d="M436.943 263.502C438.66 263.372 440.174 263.678 441.646 264.578C444.105 266.081 445.998 268.707 446.668 271.509C447.191 273.694 447.149 276.556 445.884 278.489C445.023 279.802 443.799 280.774 442.258 281.113C441.233 281.4 440.377 281.248 439.39 280.879C436.725 279.878 434.755 277.328 433.658 274.774C432.629 272.382 432.3 269.417 433.344 266.966C434.101 265.185 435.195 264.208 436.943 263.502Z" fill="#FEFEFE"/>
<path d="M162.88 204.268C163.044 204.226 163.121 204.195 163.303 204.202C164.586 204.25 177.899 219.592 179.554 221.673C178.777 225.393 178.112 229.133 177.559 232.892L174.485 229.219C169.336 223.609 164.222 218.013 159.221 212.269C157.401 210.179 155.379 208.166 153.717 205.955C156.79 205.48 159.784 204.641 162.88 204.268Z" fill="#FEFEFE"/>
<path d="M149.691 207.238C151.202 207.679 170.868 230.462 172.906 233.204C169.996 233.225 167.112 233.226 164.208 233.025C162.062 233.012 159.993 232.949 157.861 232.662C151.811 225.834 146.127 218.656 139.961 211.945C143.091 209.985 146.184 208.404 149.691 207.238Z" fill="#FEFEFE"/>
<path d="M264.904 197.902L268.996 197.828C278.995 205.195 288.771 213.117 298.374 220.993C303.156 224.915 307.843 229.001 312.748 232.766L304.926 232.729L298.892 232.528C297.081 230.628 294.922 229.03 292.923 227.332C288.265 223.347 283.523 219.465 278.697 215.685C271.399 209.888 264.144 203.72 256.58 198.302L264.904 197.902Z" fill="#FEFEFE"/>
<path d="M199.734 199.646C201.378 199.61 203.037 199.551 204.672 199.748C206.458 199.963 208.021 200.488 209.573 201.399C215.651 204.97 228.176 217.516 232.596 223.175C230.254 223.283 228.013 223.732 225.734 224.246C222.759 225.031 220.088 226.04 217.351 227.439C213.113 222.831 208.913 218.16 204.548 213.673C201.684 210.729 198.215 207.938 195.846 204.588C195.933 203.508 195.942 202.29 196.541 201.354C197.29 200.183 198.469 199.909 199.734 199.646Z" fill="#FEFEFE"/>
<path d="M123.467 234.916C128.419 234.422 133.679 234.922 138.669 235.04C152.424 235.438 166.169 236.06 179.903 236.905C178.872 240.089 177.818 243.264 176.742 246.433C174.205 246.973 162.013 245.547 158.568 245.293C146.093 244.371 133.445 243.87 121.028 242.418C122.032 239.927 122.826 237.521 123.467 234.916Z" fill="#FEFEFE"/>
<path d="M251.001 332.53C253.586 332.173 262.311 333.863 265.636 334.144C268.029 339.606 270.646 344.22 274.669 348.638L240.091 348.623C232.087 348.575 224.082 348.598 216.077 348.693C218.831 346.889 221.935 345.528 224.89 344.088C233.428 339.926 242.278 336.296 251.001 332.53Z" fill="#FEFEFE"/>
<path d="M102.988 243.719C107.189 243.687 115.578 244.001 119.53 245.013C120.931 249.784 122.288 254.584 123.95 259.272C124.923 262.019 127.121 266.222 127.516 268.936L127.232 269.061L126.593 268.399L125.793 268.728C121.497 264.426 116.555 260.734 110.189 260.747C106.092 260.756 102.533 262.583 99.6974 265.477C92.791 272.526 89.8284 285.836 89.6486 295.498L89.2486 295.317C89.2068 296.644 89.1486 297.969 89.0739 299.294C88.4635 296.576 88.0081 293.896 87.8237 291.112C87.4402 285.322 87.8042 265.95 90.3462 261.564C91.6946 259.237 94.3745 257.805 96.043 255.687C98.7704 252.224 100.83 247.591 102.988 243.719Z" fill="#FEFEFE"/>
<path d="M89.2486 295.317C89.0414 292.954 89.3614 290.401 89.5836 288.04C90.475 278.571 92.6085 268.864 100.362 262.532C103.854 259.68 107.674 258.462 112.174 258.93C118.237 259.561 122.895 263.865 126.593 268.399L125.793 268.728C121.497 264.426 116.555 260.733 110.189 260.747C106.092 260.756 102.533 262.582 99.6974 265.477C92.791 272.526 89.8284 285.836 89.6486 295.497L89.2486 295.317Z" fill="#1C2244"/>
<path d="M138.886 307.427C142.982 307.615 147.262 308.524 151.343 309.068L177.667 312.557L259.762 323.323L260.007 328.738C252.462 328.27 244.79 326.93 237.294 325.92L203.611 321.463C182.536 318.567 161.253 316.408 140.315 312.574L138.886 307.427Z" fill="#FEFEFE"/>
<path d="M255.121 312.581C253.969 299.807 256.35 285.39 264.14 274.904C269.426 267.79 276.841 262.926 285.673 261.71C293.902 260.577 302.18 263.268 308.743 268.213C322.725 278.748 327.452 295.852 329.793 312.397C329.829 314.27 329.889 316.074 330.254 317.921C330.2 318.258 330.102 318.489 329.969 318.799C328.894 319.23 327.661 319.047 326.523 319.003C326.468 317.52 326.401 316.037 326.32 314.555C325.519 300.689 319.54 284.933 308.968 275.622C303.046 270.405 295.078 267.229 287.125 267.83C279.809 268.382 273.492 271.848 268.749 277.374C259.925 287.654 258.561 300.37 259.584 313.319C258.123 312.972 256.607 312.8 255.121 312.581Z" fill="#FEFEFE"/>
<path d="M182.724 237.276C189.986 237.462 197.244 237.764 204.497 238.181C208.118 238.371 211.9 238.334 215.48 238.853C218.931 239.353 221.63 241.667 225.024 242.396C231.799 243.852 248.617 243.748 255.816 243.047C255.318 245.641 254.78 251.308 253.775 253.334C229.074 250.638 204.322 248.539 179.519 247.037C180.423 243.729 181.491 240.475 182.724 237.276Z" fill="#FEFEFE"/>
<path d="M271.45 234.027C275.997 234.96 280.836 235.523 285.459 235.966C285.496 235.911 285.525 235.85 285.57 235.802C286.122 235.207 287.294 235.318 288.076 235.245C295.375 236.161 302.651 237.238 309.902 238.477C308.661 239.076 307.301 238.295 305.969 238.46L308.229 238.904L308.227 239.157L307.722 239.267C309.297 239.832 311.31 239.975 312.979 240.274C316.549 240.915 320.118 241.546 323.653 242.363C339.917 246.122 357.028 250.041 372.063 257.496C375.561 259.231 378.918 261.384 382.229 263.452C373.799 261.774 365.517 259.239 357.094 257.469C330.985 251.91 304.771 246.911 278.449 242.473C276.118 239.658 273.886 236.753 271.45 234.027Z" fill="#FEFEFE"/>
<path d="M288.076 235.245C295.375 236.161 302.651 237.238 309.902 238.477C308.661 239.076 307.301 238.295 305.968 238.46L308.229 238.904L308.227 239.157L307.722 239.267C300.297 238.224 292.897 236.977 285.459 235.966C285.496 235.911 285.525 235.85 285.57 235.802C286.122 235.207 287.294 235.318 288.076 235.245Z" fill="#20233A"/>
<path d="M478.244 319.138C479.636 319.028 480.657 318.885 481.854 319.772C482.42 320.194 482.795 320.574 482.921 321.277C482.848 321.551 482.779 321.797 482.573 322.007C481.942 322.644 480.814 323.074 479.934 323.183C475.991 323.676 471.773 323.609 467.781 323.833L440.534 325.328C424.181 326.229 407.848 327.413 391.485 328.135C378.427 328.626 365.375 329.23 352.329 329.947C344.465 330.304 336.587 330.49 328.736 331.07C328.161 331.142 327.885 331.241 327.346 331.009C326.785 328.401 326.76 325.478 326.776 322.816C334.228 322.814 341.679 322.918 349.129 323.127C361.224 323.515 373.248 324.145 385.358 323.941C395.806 323.765 406.254 322.969 416.69 322.427L478.244 319.138Z" fill="#FEFEFE"/>
<path d="M275.484 198.341C276.561 198.253 277.642 198.3 278.721 198.325C283.176 198.468 300.799 198.396 303.539 199.945C305.097 201.673 313.172 206.856 315.738 208.75C326.304 216.551 337.277 224.528 347.027 233.327C337.726 232.827 328.349 233.04 319.034 232.93C315.271 229.327 310.561 226.338 306.489 223.044C296.222 214.739 286.005 206.322 275.484 198.341Z" fill="#FEFEFE"/>
<path d="M89.6486 295.498C89.8284 285.836 92.7909 272.526 99.6974 265.477C102.533 262.583 106.092 260.756 110.189 260.747C116.555 260.734 121.497 264.426 125.793 268.728L126.036 269.018C128.773 272.319 130.669 276.497 132.574 280.314C134.891 284.958 137.344 289.585 139.48 294.313C140.661 296.926 141.556 299.671 142.743 302.273C143.049 302.943 143.139 303.166 143.767 303.545L144.2 303.426C144.715 302.501 145.11 301.492 146.217 301.19C147.998 300.705 163.315 303.342 166.482 303.752C197.535 307.561 228.531 311.786 259.47 316.429L259.558 321.428C246.583 319.112 233.269 317.922 220.201 316.141L138.362 305.154C134.641 292.55 129.846 275.383 117.465 268.525C114.246 266.741 110.641 265.999 107.059 267.071C102.896 268.316 99.697 271.736 97.7088 275.484C92.9722 284.414 93.0628 294.425 93.4403 304.241C91.7186 303.158 90.2215 302.328 89.7515 300.179C89.4394 298.751 89.6337 296.966 89.6486 295.498Z" fill="#FEFEFE"/>
<path d="M403.821 332.153C404.307 332.147 404.556 332.085 404.911 332.486C405.592 333.251 406.162 334.801 406.693 335.715C408.043 338.025 409.734 340.413 411.562 342.374C414.242 345.248 417.963 347.464 421.623 348.827C422.904 349.304 425.107 349.563 426.082 350.438C422.87 349.857 419.386 349.915 416.12 349.817L401.179 349.437L356.263 348.632L332.788 348.416C336.013 344.562 338.435 340.393 339.89 335.557C349.515 335.299 359.159 334.536 368.772 333.99L403.821 332.153Z" fill="#FEFEFE"/>
<path d="M113.474 276.219C115.392 276.136 117.274 276.761 118.904 277.749C124.943 281.412 128.376 289.597 130.006 296.243C132.599 306.814 131.87 320.881 126.072 330.33C123.67 334.246 120.316 337.053 115.827 338.153C112.733 338.279 110.206 337.654 107.71 335.733C101.611 331.038 98.9498 321.769 97.9486 314.395C96.5272 303.925 97.7222 290.004 104.349 281.44C106.734 278.358 109.637 276.699 113.474 276.219Z" fill="#FEFEFE"/>
<path d="M109.371 310.662L109.998 310.677L110.29 310.987C110.188 312.79 107.989 315.452 107.207 317.207C105.924 320.081 105.237 323.569 104.711 326.669L104.41 326.865C103.792 326.52 103.48 325.733 103.144 325.131C101.248 320.999 100.555 316.681 99.759 312.25L99.9716 312.237C103.168 312.014 106.231 311.261 109.371 310.662Z" fill="#1C2244"/>
<path d="M110.892 280.702C111.012 280.826 111.171 280.92 111.251 281.073C111.318 281.2 110.595 290.953 110.599 292.151C110.608 294.767 110.798 297.371 111.17 299.961C111.357 301.273 111.959 302.98 111.892 304.266C111.865 304.792 111.729 304.847 111.36 305.172C110.675 304.646 110.235 303.413 109.839 302.642C107.5 296.962 105.9 291.82 105.223 285.705C106.843 283.349 108.237 281.83 110.892 280.702Z" fill="#1C2244"/>
<path d="M103.031 289.565C103.296 289.89 105.32 298.602 105.876 300.176C106.174 301.017 106.485 301.871 106.964 302.629C107.628 303.679 109.93 305.89 109.87 307.05C108.787 307.573 107.287 307.584 106.091 307.716L99.6217 308.403C99.6577 302.089 100.212 295.327 103.031 289.565Z" fill="#1C2244"/>
<path d="M112.175 313.787L112.576 314.309C112.69 316.736 114.677 334.065 114.484 334.528C113.139 334.86 111.496 334.022 110.285 333.479C108.786 332.679 107.567 331.634 106.355 330.454C107.18 325.112 108.861 318.104 112.175 313.787Z" fill="#1C2244"/>
<path d="M113.813 280.436C114.07 280.437 114.316 280.442 114.571 280.468C117.543 280.774 120.013 283.076 121.832 285.276C119.481 288.871 117.651 292.744 116.113 296.746C115.761 297.708 115.448 298.903 114.95 299.784C114.611 300.383 114.372 300.623 113.725 300.777C113.581 300.639 113.516 300.596 113.412 300.44C111.538 297.604 113.175 284.005 113.813 280.436Z" fill="#1C2244"/>
<path d="M122.908 286.993C125.976 289.826 127.799 298.056 128.481 302.162L121.566 305.056C119.939 305.621 118.338 306 116.651 306.337C117.046 300.165 119.348 292.032 122.908 286.993Z" fill="#1C2244"/>
<path d="M128.05 302.908L128.192 302.954C128.416 303.135 128.513 303.273 128.605 303.55C130.423 309.011 127.334 321.574 124.793 326.353C122.845 330.016 120.093 333.363 116.034 334.629C115.553 329.509 115.76 324.321 115.486 319.182L115.458 315.574C119.011 318.731 122.532 321.756 126.564 324.291C123.673 320.478 119.772 317.34 117.596 312.959C117.143 312.048 116.901 310.987 117.266 310.007C118.408 306.943 125.215 304.264 128.05 302.908Z" fill="#1C2244"/>
<path d="M96.3451 241.312C97.357 238.91 100.063 236.588 101.857 234.673C106.949 229.208 112.223 223.926 117.681 218.828C121.379 215.423 125.893 212.086 129.117 208.27C129.568 207.736 129.906 207.261 129.629 206.545C129.563 206.372 129.479 206.207 129.401 206.04C130.376 205.002 137.227 203.143 139.117 202.563C162.762 195.308 183.095 192.077 207.651 190.384C212.788 190.031 217.942 189.6 223.089 189.444C236.979 189.022 251.064 189.423 264.927 190.255C280.756 191.203 296.233 192.685 311.843 195.59C317.367 196.618 323.859 197.649 329.009 199.941C333.507 200.974 337.943 202.867 342.241 204.549C347.695 206.66 353.024 209.049 358.229 211.717C362.428 213.818 393.982 231.053 395.037 233.466C394.953 233.489 394.873 233.515 394.793 233.534C392.831 233.969 382.926 227.034 380.503 225.552C374.016 221.586 367.158 217.939 360.418 214.413C356.749 212.494 353.074 210.446 349.294 208.754C345.161 206.939 340.991 205.214 336.784 203.578C334.165 202.543 331.099 201.656 328.748 200.135C322.563 199.112 315.093 198.976 308.796 198.855C307.443 199.22 304.43 198.534 303.663 199.667C303.606 199.751 303.58 199.853 303.539 199.945C300.799 198.396 283.176 198.468 278.721 198.325L278.698 197.456C272.781 197.222 266.862 197.102 260.94 197.098C252.888 197.118 240.688 197.918 233.251 195.687L233.476 195.881C235.879 197.941 238.747 199.41 241.095 201.534C251.184 210.659 259.713 221.358 268.279 231.871C271.22 235.479 274.637 238.985 277.159 242.894C271.036 241.803 264.945 241.121 258.788 240.32C258.811 239.037 258.819 237.812 258.476 236.567C256.326 228.767 246.992 217.864 241.387 212.03C229.384 199.536 219.531 195.746 202.423 195.428C186.269 195.128 166.898 198.197 151.301 202.441C148.279 203.262 145.027 204.009 142.197 205.362C140.062 206.383 138.294 207.975 136.603 209.607C130.628 215.371 125.152 222.392 122.491 230.335C121.189 234.224 120.374 238.284 119.245 242.228C111.608 242.025 103.983 241.387 96.3451 241.312Z" fill="#FEFEFE"/>
<path d="M278.698 197.456C288.745 197.611 298.777 198.078 308.796 198.855C307.443 199.22 304.43 198.534 303.663 199.667C303.606 199.751 303.58 199.853 303.539 199.945C300.799 198.396 283.176 198.468 278.721 198.325L278.698 197.456Z" fill="#171834"/>
<path d="M121.588 244.96C127.267 245.084 133.042 245.864 138.718 246.294L176.251 249.154C174.712 259.008 175.445 268.919 176.098 278.817C176.603 286.485 177.182 294.201 178.127 301.827C178.104 301.852 178.084 301.881 178.056 301.901C177.431 302.346 147.391 298.24 143.463 298.012C140.595 291.985 137.641 286 134.599 280.058C132.624 276.154 130.504 272.266 128.82 268.227C125.853 261.115 123.586 252.448 121.588 244.96Z" fill="#FEFEFE"/>
<path d="M126.202 249.626L126.737 250.038L126.535 250.478C128.429 252.483 134.331 252.048 136.98 252.149L137.179 252.448C135.619 252.952 134.557 254.652 132.902 255.212C132.055 255.498 131.231 255.396 130.447 254.982C129.259 254.354 126.211 251.985 125.882 250.642C125.776 250.213 126.004 249.998 126.202 249.626Z" fill="#1C2244"/>
<path d="M126.202 249.626C127.15 248.514 128.542 248.225 129.939 248.126C132.084 247.974 136.094 248.343 137.731 249.941C138.074 250.275 138.116 250.599 138.263 251.04C138.127 251.535 138.019 252.054 137.515 252.319C137.409 252.375 137.291 252.405 137.179 252.448L136.98 252.149C134.331 252.048 128.429 252.483 126.535 250.479L126.737 250.038L126.202 249.626Z" fill="#1C2244"/>
<path d="M126.535 250.479C126.759 250.302 127.083 249.963 127.33 249.852C128.256 249.436 131.642 250.008 132.747 250.141C133.951 250.286 136.37 250.434 137.218 251.401C137.143 251.648 137.083 251.913 136.98 252.149C134.331 252.048 128.429 252.483 126.535 250.479Z" fill="#FEFEFE"/>
<path d="M288.076 235.245C291.976 234.169 299.548 234.966 303.941 235.039L324.721 235.297L379.762 235.329C385.037 235.318 392.804 234.161 397.691 234.922C402.762 235.712 407.898 237.319 412.866 238.611C428.04 242.554 444.446 246.576 458.171 254.389C460.435 255.676 466.289 259.238 466.848 261.729C466.947 262.165 466.928 262.458 466.649 262.817C464.58 265.47 456.729 265.81 453.501 266.049C451.004 266.234 448.492 266.342 446.006 266.631C443.975 264.085 440.794 262.185 437.543 261.82C435.75 261.619 433.612 261.819 432.197 263.043C431.08 264.01 430.755 265.514 429.707 266.448C416.12 265.893 402.399 266.589 388.838 265.557C371.706 253.585 351.114 247.515 331.005 242.736C324.094 241.093 316.944 239.395 309.902 238.477C302.651 237.239 295.375 236.161 288.076 235.245Z" fill="#FEFEFE"/>
<path d="M290.637 278.542C290.741 278.532 290.845 278.516 290.951 278.511C295.676 278.311 300.819 280.808 304.254 283.901C312.645 291.454 316.216 303.849 316.812 314.81C317.402 325.669 314.519 337.989 307.066 346.183C303.057 350.591 298.002 352.929 292.082 353.229C287.147 352.732 283.104 351.238 279.247 348.047C270.912 341.151 266.552 329.744 265.545 319.179C264.458 307.782 267.009 295.897 274.476 286.967C278.846 281.74 283.892 279.138 290.637 278.542Z" fill="#FEFEFE"/>
<path d="M296.315 316.649C296.719 317.306 296.74 317.781 296.603 318.554C296.27 320.424 295.099 322.311 293.491 323.336C292.391 324.038 291.099 324.265 289.838 323.909C287.976 323.382 287.137 321.989 286.203 320.44C286.001 319.919 285.985 319.628 286.015 319.086L286.366 319.048C287.394 319.94 288.116 321.361 288.963 322.453C290.324 322.845 291.679 323.15 293.001 322.473C295.011 321.443 295.616 318.605 296.315 316.649Z" fill="#07070E"/>
<path d="M268.673 314.273C273.638 316.176 278.228 317.481 283.599 317.464C283.864 318.615 284.072 319.784 284.303 320.943C282.373 323.437 279.79 325.525 277.718 327.951C275.981 330.075 274.629 332.591 273.325 334.997C270.186 328.233 268.99 321.665 268.673 314.273Z" fill="#1C2244"/>
<path d="M288.559 283.634C290.308 283.249 292.5 283.964 294.16 284.462C292.941 288.476 291.347 292.073 290.519 296.24C289.878 299.463 289.922 304.414 288.305 307.173C287.803 307.259 287.254 307.337 286.757 307.175C285.765 306.852 285.035 305.837 284.548 304.969C281.651 299.812 282.049 290.571 283.596 284.966C285.236 284.024 286.711 283.821 288.559 283.634Z" fill="#1C2244"/>
<path d="M286.394 325.839C286.939 325.898 287.604 326.018 288.043 326.376C288.539 326.78 288.614 327.225 288.682 327.818C289.014 330.694 288.739 333.692 288.846 336.588C288.991 340.484 289.694 344.308 290.481 348.117C287.75 347.729 285.434 347.021 282.951 345.816C280.509 344.159 278.46 342.275 276.453 340.132C278.078 334.343 281.13 328.97 286.394 325.839Z" fill="#1C2244"/>
<path d="M277.239 289.825L277.667 290.399C278.064 293.92 278.547 297.501 279.52 300.916C280.455 304.196 284.817 309.839 283.561 313.144C283.346 313.708 282.99 314.154 282.405 314.352C280.994 314.829 278.862 313.491 277.643 312.894C274.792 311.387 271.775 310.159 268.902 308.675C269.626 302.023 272.779 294.741 277.239 289.825Z" fill="#1C2244"/>
<path d="M296.435 285.449C301.066 286.408 304.944 291.463 307.579 295.078C305.054 297.852 302.097 300.412 299.448 303.094C298.395 304.192 297.085 305.933 295.78 306.683C295.009 307.125 294.138 307.135 293.307 306.903C292.53 306.394 292.215 305.866 292.016 304.956C290.703 298.935 293.047 290.457 296.435 285.449Z" fill="#1C2244"/>
<path d="M308.635 297.224C308.815 297.316 308.887 297.338 309.04 297.508C311.372 300.109 314.382 311.683 313.729 315.381C313.312 315.778 303.839 315.48 302.482 315.475C300.928 315.495 299.226 315.691 297.939 314.644C297.284 314.111 296.964 313.424 296.921 312.583C296.727 308.795 305.849 300.144 308.635 297.224Z" fill="#1C2244"/>
<path d="M308.419 316.557C310.13 316.275 311.985 316.48 313.707 316.601C313.933 323.172 312.847 328.627 310.867 334.837C309.087 333.754 307.432 332.398 305.759 331.156C302.582 328.723 298.462 325.423 296.772 321.752C297.193 320.77 297.741 319.882 298.295 318.972C301.443 317.599 305.022 316.929 308.419 316.557Z" fill="#1C2244"/>
<path d="M293.166 326.554C293.825 326.651 294.488 326.921 295.052 327.276C297.073 328.547 298.926 330.193 300.86 331.601C303.501 333.524 306.242 335.305 308.88 337.233C307.992 338.44 307.029 339.584 305.991 340.665C304.953 341.745 303.849 342.753 302.679 343.688C301.334 344.676 299.948 345.494 298.446 346.221C297.284 346.783 294.675 348.082 293.411 347.394C292.435 346.864 292.044 345.26 291.834 344.247C290.873 339.593 290.525 330.586 293.166 326.554Z" fill="#1C2244"/>
<path d="M179.036 249.321L253.406 255.628C253.208 258.266 252.828 260.888 252.661 263.532C252.159 271.473 252.056 279.579 252.254 287.531C252.462 295.842 253.39 304.131 253.427 312.44C229.018 309.404 204.725 305.458 180.313 302.427C178.913 290.173 176.175 260.987 179.036 249.321Z" fill="#FEFEFE"/>
<path d="M180.479 253.453C181.24 252.54 181.988 252.31 183.156 252.213C185.488 252.02 190.615 251.964 192.485 253.537C192.901 253.887 193.182 254.25 193.422 254.734C193.456 254.789 193.496 254.841 193.524 254.9C193.711 255.282 193.757 255.854 193.579 256.236C193.097 257.268 190.603 258.41 189.514 258.799C183.918 260.801 185.322 257.984 181.978 256.445C181.189 256.081 180.576 255.758 180.144 254.986C180.084 254.227 180.157 254.108 180.479 253.453Z" fill="#1C2244"/>
<path d="M180.72 253.756C181.919 253.508 191.333 254.441 192.335 255.161C192.491 255.274 192.52 255.324 192.659 255.477C192.626 255.746 192.527 255.954 192.426 256.204C192.346 256.235 192.267 256.27 192.186 256.299C190.805 256.783 182.673 255.906 181.453 255.159C180.891 254.815 180.89 254.347 180.72 253.756Z" fill="#FEFEFE"/>
<path d="M257.766 242.346C267.524 242.883 277.438 245.012 287.061 246.699C311.633 251.005 336.019 256.508 360.418 261.685C368.919 263.488 377.296 265.913 385.875 267.313C385.917 267.351 385.963 267.387 386.008 267.425C388.093 269.203 394.85 275.363 395.064 277.767C393.634 278.787 389.255 279.489 387.393 279.843C384.987 280.301 382.463 280.632 380.01 280.629C373.211 280.622 366.154 279.495 359.348 279.011C353.927 278.626 343.137 278.583 338.319 277.427C336.586 277.011 335.19 275.999 333.739 275.009C342.447 276.477 351.304 276.934 360.098 277.571C369.579 278.258 381.358 280.066 390.647 277.736C387.775 276.269 381.954 275.189 379.926 273.22L379.755 273.21L379.48 272.583C379.174 273.25 379.049 273.602 378.271 273.82C377.616 274.004 376.918 273.874 376.291 273.663C374.462 273.485 372.362 273.213 370.558 273.621C370.678 273.667 370.796 273.715 370.917 273.759C372.502 274.33 373.375 273.664 374.473 275.245C372.76 275.057 370.407 275.266 368.889 274.383C367.998 273.865 367.823 273.041 367.576 272.111C367.371 271.083 367.153 269.953 367.397 268.914C367.728 267.503 368.857 266.859 369.997 266.161C367.536 265.477 364.94 265.36 362.515 264.599L362.523 264.296C363.413 264.07 364.374 264.712 365.384 264.506C364.511 264.171 363.601 264.259 362.719 263.847L362.73 263.552C354.466 261.159 342.435 258.469 333.842 257.908C331.687 258.907 326.673 260.575 325.928 262.931C325.473 264.37 326.371 265.773 327.067 266.966C329.932 271.878 332.272 278.412 338.237 279.987C343.174 281.29 348.829 281.27 353.909 281.627C363.997 282.338 376.232 283.637 386.265 282.517C390.663 282.026 394.892 279.995 399.221 279.651C404.525 279.23 410.036 279.543 415.367 279.545C421.459 279.548 427.65 279.267 433.727 279.686C436.143 281.359 438.476 283.838 441.715 283.27C443.241 283.003 445.773 281.701 446.603 280.372C446.763 280.111 446.866 279.841 446.981 279.556C456.672 278.675 466.427 278.438 476.121 277.647C476.534 278.037 476.836 278.41 477.158 278.877C477.9 279.957 480.554 281.627 480.825 282.579C482.129 284.427 482.083 290.028 481.708 292.378C481.651 292.729 481.533 293.025 481.334 293.317L481.108 293.351C478.041 293.79 474.84 293.809 471.746 293.958C465.85 294.241 459.951 294.487 454.052 294.696C439.287 295.287 424.438 296.366 409.661 295.717C401.663 295.314 393.675 294.776 385.695 294.103C379.127 293.564 363.221 291.528 357.265 292.927C352.64 294.013 348.647 299.106 345.869 302.758C342.028 307.807 338.913 313.162 336.911 319.195C335.398 319.191 332.292 319.522 331.135 318.491L330.912 317.932L330.254 317.921C329.889 316.074 329.829 314.27 329.793 312.397C329.811 312.229 329.825 312.061 329.854 311.895C329.867 311.823 329.988 311.268 329.993 311.188C330.002 311.06 329.984 310.93 329.98 310.801L330.105 312.485C330.6 311.547 330.293 309.724 330.187 308.675L330.566 308.526C330.764 299.859 324.849 284.917 320.071 277.738C314.43 269.261 305.634 262.207 295.505 260.258C295.246 260.206 294.986 260.157 294.725 260.112C294.464 260.067 294.203 260.025 293.941 259.986C293.68 259.948 293.418 259.912 293.155 259.88C292.893 259.848 292.63 259.82 292.366 259.794C292.103 259.769 291.839 259.747 291.575 259.728C291.312 259.709 291.047 259.694 290.783 259.682C290.519 259.67 290.255 259.661 289.99 259.656C289.726 259.651 289.461 259.649 289.196 259.65C288.932 259.651 288.668 259.656 288.403 259.664C288.139 259.672 287.875 259.684 287.611 259.699C287.346 259.713 287.082 259.731 286.819 259.753C286.555 259.774 286.292 259.799 286.028 259.827C285.766 259.855 285.503 259.887 285.241 259.922C284.978 259.956 284.717 259.994 284.456 260.036C284.194 260.077 283.933 260.122 283.673 260.17C283.413 260.218 283.154 260.269 282.895 260.324C282.636 260.378 282.378 260.436 282.12 260.497C281.863 260.558 281.606 260.623 281.35 260.69C281.095 260.758 280.84 260.829 280.586 260.903C280.332 260.977 280.079 261.054 279.827 261.134C279.575 261.215 279.324 261.298 279.074 261.385C278.824 261.472 278.575 261.562 278.328 261.655C278.08 261.748 277.833 261.844 277.588 261.944C277.343 262.043 277.099 262.146 276.857 262.251C276.614 262.357 276.373 262.465 276.133 262.577C275.893 262.688 275.654 262.803 275.417 262.921C275.18 263.038 274.945 263.159 274.711 263.283C274.477 263.406 274.244 263.533 274.014 263.663C273.783 263.792 273.554 263.924 273.326 264.06C273.099 264.195 272.873 264.333 272.65 264.474C272.425 264.615 272.203 264.759 271.983 264.906C271.763 265.052 271.544 265.202 271.328 265.354C261.317 272.3 256.324 282.815 254.258 294.487C254.011 290.769 254.108 286.963 254.078 283.235C254.003 274.188 253.692 264.586 255.497 255.702C258.631 255.978 276.085 257.54 277.638 256.961L277.775 256.363L277.847 256.852L278 256.424C276.203 254.903 259.455 253.812 256.042 253.459C256.714 249.786 257.18 246.039 257.766 242.346Z" fill="#FEFEFE"/>
<path d="M329.793 312.397C329.811 312.229 329.825 312.061 329.854 311.894C329.867 311.823 329.988 311.268 329.993 311.188C330.002 311.06 329.984 310.93 329.98 310.801L330.105 312.484C330.6 311.547 330.293 309.724 330.187 308.675L330.566 308.526C330.861 311.662 330.887 314.785 330.912 317.931L330.254 317.921C329.889 316.074 329.829 314.27 329.793 312.397Z" fill="#07070E"/>
<path d="M376.899 266.547C377.948 266.793 378.99 266.963 379.58 267.978C380.304 269.222 380.237 271.839 379.926 273.219L379.755 273.209L379.48 272.583C379.262 271.568 379.26 269.635 378.65 268.817C378.194 268.206 377.571 267.928 376.848 267.781C376.478 267.706 376.117 267.61 375.751 267.518C376.333 266.719 377.153 267.732 377.894 267.31C377.496 267.139 377.089 267.001 376.68 266.86L376.899 266.547Z" fill="#20233A"/>
<path d="M362.73 263.552C367.454 264.358 372.249 265.389 376.899 266.547L376.68 266.86C377.089 267.001 377.496 267.139 377.894 267.309C377.153 267.732 376.333 266.719 375.751 267.518C376.117 267.61 376.478 267.706 376.848 267.781C377.571 267.928 378.194 268.206 378.65 268.817C379.26 269.635 379.262 271.568 379.48 272.583C379.174 273.25 379.049 273.601 378.271 273.82C377.616 274.004 376.918 273.874 376.291 273.663C374.462 273.485 372.362 273.213 370.558 273.621C370.678 273.667 370.796 273.715 370.917 273.759C372.502 274.33 373.375 273.663 374.473 275.244C372.76 275.057 370.407 275.265 368.889 274.383C367.998 273.865 367.823 273.041 367.576 272.111C367.371 271.083 367.153 269.953 367.397 268.914C367.728 267.503 368.857 266.859 369.997 266.161C367.536 265.477 364.94 265.359 362.515 264.598L362.523 264.296C363.413 264.07 364.374 264.712 365.384 264.506C364.511 264.17 363.601 264.258 362.719 263.847L362.73 263.552Z" fill="#171834"/>
<path d="M368.44 271.376C368.42 271.138 368.405 270.906 368.404 270.667C368.396 269.66 368.421 268.843 369.199 268.122C370.687 266.741 373.867 267.366 375.75 267.518C376.117 267.61 376.478 267.706 376.848 267.781C377.571 267.928 378.194 268.206 378.65 268.817C379.26 269.635 379.262 271.568 379.48 272.583C379.174 273.25 379.049 273.601 378.271 273.82C377.616 274.004 376.918 273.874 376.291 273.663C376.922 273.42 377.696 273.129 378.135 272.589C378.51 272.128 378.694 271.453 378.616 270.864C378.527 270.2 377.936 269.534 377.423 269.145C376.053 268.108 373.54 267.733 371.871 267.944C370.921 268.064 370.01 268.463 369.461 269.284C368.716 270.396 369.1 271.562 369.359 272.763L368.44 271.376Z" fill="#FEFEFE"/>
<path d="M371.007 270.05C372.53 269.83 375.157 269.686 376.548 270.437C377.028 270.697 377.026 270.856 377.185 271.346C376.968 272.03 376.697 272.318 376.171 272.798C375.256 272.776 374.341 272.739 373.426 272.687C372.139 272.609 370.926 272.653 370.02 271.635C370.155 270.782 370.418 270.655 371.007 270.05Z" fill="#FEFEFE"/>
</svg>
